<?xml version="1.0" encoding="UTF-8"?><svg xmlns="http://www.w3.org/2000/svg" width="3710" height="3710" xmlns:xlink="http://www.w3.org/1999/xlink" viewBox="0 0 3710 3710"><defs><linearGradient id="c" x1="876.96" y1="1940.04" x2="1338.15" y2="1891.86" gradientUnits="userSpaceOnUse"><stop offset="0" stop-color="#26264f"/><stop offset="1" stop-color="#444b8c"/></linearGradient><linearGradient id="d" x1="1860.07" y1="3348.99" x2="1957.79" y2="3209.03" gradientUnits="userSpaceOnUse"><stop offset="0" stop-color="#444b8c"/><stop offset="1" stop-color="#26264f"/></linearGradient><linearGradient id="e" x1="2155.87" y1="3313.11" x2="2006.32" y2="2501.29" xlink:href="#d"/><linearGradient id="f" x1="2524.77" y1="1072.03" x2="3273.15" y2="3.93" xlink:href="#d"/><linearGradient id="g" x1="2199.73" y1="1198.85" x2="1263.61" y2="4172.09" xlink:href="#d"/><linearGradient id="h" x1="2653.07" y1="702.16" x2="436.69" y2="4372.29" gradientUnits="userSpaceOnUse"><stop offset="0" stop-color="#ff9085"/><stop offset="1" stop-color="#fb6fbb"/></linearGradient><linearGradient id="i" x1="2018.73" y1="1165.71" x2="1966.94" y2="1594.37" xlink:href="#d"/><linearGradient id="j" x1="3139.44" y1="936.32" x2="3032.55" y2="1162.68" xlink:href="#h"/><linearGradient id="k" x1="3182.39" y1="959.31" x2="3075.85" y2="1184.92" xlink:href="#h"/><linearGradient id="l" x1="3225.1" y1="982.14" x2="3118.91" y2="1207.01" xlink:href="#h"/><linearGradient id="m" x1="1451.85" y1="1136.31" x2="800.71" y2="1205.43" gradientTransform="translate(0 6.13) rotate(-.89) skewX(-.89)" gradientUnits="userSpaceOnUse"><stop offset="0" stop-color="#ffc444"/><stop offset="1" stop-color="#f36f56"/></linearGradient><linearGradient id="n" x1="1796.89" y1="820.51" x2="2397.8" y2="2151.4" xlink:href="#m"/><linearGradient id="o" x1="1921.81" y1="987.28" x2="1981.23" y2="-310.86" xlink:href="#m"/><linearGradient id="p" x1="1796.95" y1="820.69" x2="2397.76" y2="2151.35" xlink:href="#m"/><linearGradient id="q" x1="1754.22" y1="883.4" x2="2635.83" y2="-485.07" xlink:href="#m"/><linearGradient id="r" x1="1958.01" y1="747.97" x2="2558.82" y2="2078.63" xlink:href="#m"/><linearGradient id="s" x1="1982.41" y1="1536.52" x2="1984.79" y2="1435.49" gradientUnits="userSpaceOnUse"><stop offset="0" stop-color="#311944"/><stop offset="1" stop-color="#893976"/></linearGradient><linearGradient id="t" x1="2676.71" y1="2443.7" x2="2692.16" y2="2271.35" xlink:href="#s"/><linearGradient id="u" x1="2634.22" y1="3108.1" x2="2648.49" y2="3371.97" xlink:href="#s"/><linearGradient id="v" x1="2246.37" y1="3129.06" x2="2260.63" y2="3392.93" xlink:href="#s"/><linearGradient id="w" x1="921.98" y1="2696.46" x2="1416.58" y2="2696.46" gradientTransform="translate(1249.56)" xlink:href="#s"/><linearGradient id="x" x1="906.27" y1="2327.77" x2="1262.59" y2="2926.26" gradientTransform="translate(1249.56)" xlink:href="#m"/><linearGradient id="y" x1="1046.54" y1="2244.25" x2="1402.87" y2="2842.75" gradientTransform="translate(1249.56)" xlink:href="#m"/><linearGradient id="z" x1="2383.4" y1="1955.15" x2="2785.2" y2="1955.15" gradientUnits="userSpaceOnUse"><stop offset="0" stop-color="#e38ddd"/><stop offset="1" stop-color="#9571f6"/></linearGradient><linearGradient id="aa" x1="2125.29" y1="2133.1" x2="2921.41" y2="2133.1" xlink:href="#z"/><linearGradient id="ab" x1="1138.15" y1="1586.57" x2="1211.19" y2="1702.66" gradientTransform="translate(1249.56)" xlink:href="#z"/><linearGradient id="ac" x1="4457.04" y1="3765.34" x2="4282.32" y2="3649.45" gradientTransform="translate(1249.56)" xlink:href="#s"/><linearGradient id="ad" x1="2920.38" y1="2637.85" x2="2745.66" y2="2521.96" gradientTransform="translate(1534.77 640.48) rotate(-13.66)" xlink:href="#s"/><linearGradient id="ae" x1="2423.62" y1="1014.15" x2="3096.34" y2="2083.39" xlink:href="#d"/><linearGradient id="af" x1="1940.64" y1="1640.53" x2="2369.31" y2="1640.53" xlink:href="#z"/><linearGradient id="ag" x1="2166.07" y1="1711.75" x2="2548.26" y2="2497.66" xlink:href="#z"/><linearGradient id="ah" x1="1247.84" y1="1487.79" x2="1728.12" y2="2583.71" xlink:href="#s"/><linearGradient id="ai" x1="1267.05" y1="1487.79" x2="1747.33" y2="2583.71" xlink:href="#h"/><linearGradient id="aj" x1="1288.4" y1="1529.21" x2="1705.61" y2="2481.22" xlink:href="#h"/><linearGradient id="ak" x1="1434.47" y1="1488.1" x2="1315.45" y2="2628.93" xlink:href="#h"/></defs><g isolation="isolate"><g id="a"><rect width="3710" height="3710" fill="#fff"/></g><g id="b"><g><path d="m3323.03,1864.14c47.79,243.84,144.65,738.05-87.14,1068.66-420.66,600.03-1851.29,557.75-2455.58-198.77-52.24-65.4-314.32-406.57-285.73-873.74,49.6-810.32,944.87-1528.54,1662.37-1387.48,419.92,82.56,699.01,443.73,813.91,592.42,47.35,61.28,264.22,350.16,352.16,798.9Z" fill="#f4f7fa"/><g><path d="m686.93,2898.87c-55.1,3.22-100.13-35.29-100.13-85.87V990.25c0-50.57,45.04-90.08,100.13-88.08l2600.64,94.37c42.14,1.53,76.27,38.52,76.27,82.46v1583.78c0,43.94-34.14,81.69-76.27,84.15l-2600.64,151.94Z" fill="url(#c)"/><path d="m2382.44,3100.62c-41.57-14.47-72.64-51.48-81.4-96.97l-60.5-314.16-517.53,19.28-63.69,327.28c-8.92,45.84,26.79,91.82,67.91,108.7l216.52,88.88c40.27,16.53,83.56,23.12,126.59,19.25l457.59-41.07c13.38-1.2,24.11-12.23,25.66-26.39,1.56-14.15,10.93-30.05-1.83-34.48l-169.33-50.33Z" fill="url(#d)"/><path d="m2387.56,3081.51c-41.52-14.28-72.56-50.83-81.31-95.75l-60.44-310.21-504.92,19.06-63.63,323.17c-8.91,45.26,14.67,90.64,55.75,107.31l216.31,87.77c40.23,16.32,83.48,22.83,126.46,19.01l457.13-40.56c13.36-1.19,24.08-12.08,25.64-26.05,1.56-13.98-6.48-27.17-19.23-31.55l-151.76-52.2Z" fill="url(#e)"/><g><g><path d="m707.52,2898.87c-55.1,3.22-100.13-35.29-100.13-85.87V990.25c0-50.57,45.04-90.08,100.13-88.08l2600.64,94.37c42.14,1.53,76.27,38.52,76.27,82.46v1583.78c0,43.94-34.14,81.69-76.27,84.15l-2600.64,151.94Z" fill="url(#f)"/><path d="m3308.16,1033.78l-2600.64-89.13c-29.46-1.01-53.4,20.07-53.4,47.08v1818.73c0,27.02,23.94,47.56,53.4,45.9l2600.64-146.7c22.58-1.27,40.85-21.41,40.85-44.98v-1586.83c0-23.57-18.26-43.3-40.85-44.08Z" fill="url(#g)"/><path d="m707.52,2701.4c-11.47.56-20.81-7.53-20.81-18.04V992.78c0-10.51,9.34-18.76,20.81-18.38l2600.64,85.46c8.81.29,15.97,8.01,15.97,17.2v1479.29c0,9.2-7.16,17.03-15.97,17.46l-2600.64,127.58Z" fill="url(#h)"/></g><g><polygon points="3219.59 2482.67 821.59 2587.98 821.59 1227.06 3219.59 1277.4 3219.59 2482.67" fill="#fff" opacity=".68"/><polygon points="3219.59 1236.22 821.59 1180.57 821.59 1064.35 3219.59 1133.29 3219.59 1236.22" fill="url(#i)"/><g><path d="m3037.46,1180.02c0,7.35-5.79,13.16-12.93,12.98-7.15-.18-12.95-6.29-12.95-13.65s5.8-13.17,12.95-12.98c7.14.19,12.93,6.3,12.93,13.65Z" fill="url(#j)"/><path d="m3090.53,1181.4c0,7.33-5.76,13.12-12.86,12.95-7.11-.18-12.88-6.28-12.88-13.61s5.77-13.13,12.88-12.94c7.1.19,12.86,6.28,12.86,13.61Z" fill="url(#k)"/><path d="m3143.31,1182.77c0,7.31-5.72,13.09-12.79,12.91-7.07-.18-12.8-6.26-12.8-13.57s5.73-13.1,12.8-12.91c7.06.19,12.79,6.27,12.79,13.57Z" fill="url(#l)"/></g><polygon points="2734.25 2265.46 873.9 2323.88 873.9 1262.42 2734.25 1298.42 2734.25 2265.46" fill="#fff" opacity=".68"/><g><polygon points="3193.98 1629.42 2766.79 1628.55 2766.79 1607.7 3193.98 1609.03 3193.98 1629.42" fill="#fff"/><polygon points="3035.03 1664.61 2766.79 1664.57 2766.79 1643.72 3035.03 1644.05 3035.03 1664.61" fill="#fff"/></g><g><polygon points="3193.98 1978.91 2766.79 1986.07 2766.79 1707.58 3193.98 1706.67 3193.98 1978.91" fill="#fff" opacity=".68"/><polygon points="3193.98 2028.78 2766.79 2037.09 2766.79 2016.23 3193.98 2008.39 3193.98 2028.78" fill="#fff"/><polygon points="3035.03 2067.38 2766.79 2073.11 2766.79 2052.25 3035.03 2046.82 3035.03 2067.38" fill="#fff"/></g><g><polygon points="3193.98 2378.27 2766.79 2394.61 2766.79 2116.12 3193.98 2106.03 3193.98 2378.27" fill="#fff" opacity=".68"/><polygon points="3193.98 2428.14 2766.79 2445.62 2766.79 2424.77 3193.98 2407.75 3193.98 2428.14" fill="#fff"/><polygon points="3035.03 2470.16 2766.79 2481.64 2766.79 2460.79 3035.03 2449.6 3035.03 2470.16" fill="#fff"/></g><g><polygon points="2161.32 2395.68 873.9 2443.47 873.9 2373.69 2161.32 2330.2 2161.32 2395.68" fill="#fff"/><polygon points="2734.25 2374.42 2550.57 2381.24 2550.57 2317.05 2734.25 2310.84 2734.25 2374.42" fill="#fff"/><polygon points="2522.2 2382.29 2334.38 2389.26 2334.38 2324.35 2522.2 2318.01 2522.2 2382.29" fill="#fff"/><polygon points="1462.9 2503.56 873.9 2527.8 873.9 2492.91 1462.9 2469.65 1462.9 2503.56" fill="#fff"/></g></g></g></g><polygon points="3193.98 1579.55 2766.79 1577.54 2766.79 1299.05 3193.98 1307.31 3193.98 1579.55" fill="#fff" opacity=".68"/><g><path d="m2644.93,590.83l-1469.63-73.41c-28.5-1.42-52.07,24.3-52.07,56.72v989.13c0,33.34,24.86,61.54,54.11,61.27l1470-13.57c31.19-.29,55.37-25.87,55.37-58.67v-898.03c0-33.78-25.6-61.84-57.78-63.45Z" fill="url(#m)"/><path d="m2672.43,591.21l-1473.86-73.54c-28.58-1.43-52.21,24.33-52.21,56.8v990.49c0,33.39,24.93,61.63,54.25,61.36l1474.23-13.43c31.28-.28,55.54-25.9,55.54-58.75v-899.38c0-33.83-25.67-61.93-57.95-63.54Z" fill="url(#n)"/><g><path d="m2064.18,1163.57l650.66-551.06c-10.54-12.35-25.56-20.46-42.42-21.3l-1473.86-73.54c-12.89-.64-24.76,4.25-33.92,12.78l791.88,633.09c32.73,26.17,76.7,26.25,107.65.04Z" fill="url(#o)"/><path d="m2064.18,1163.57c-30.95,26.21-74.92,26.13-107.65-.04l-791.88-633.09c-11.15,10.39-18.29,26.18-18.29,44.02v990.49c0,33.39,24.93,61.63,54.25,61.36l1474.23-13.43c31.28-.29,55.54-25.9,55.54-58.75v-899.38c0-16.15-5.9-30.96-15.54-42.24l-650.66,551.06Z" fill="url(#p)"/></g><path d="m2064.18,1163.57l650.66-551.06c-10.54-12.35-25.56-20.46-42.42-21.3l-1473.86-73.54c-12.89-.64-24.76,4.25-33.92,12.78l791.88,633.09c32.73,26.17,76.7,26.25,107.65.04Z" fill="url(#q)"/><path d="m2714.85,612.51l-650.66,551.06c-30.95,26.21-74.92,26.13-107.65-.04l-791.88-633.09c-11.15,10.39-18.29,26.18-18.29,44.02v146.08c27.31-12.47,50.5-14.48,69.39-12.27,52.44,6.13,65.01,43.62,166.49,100.14,95.99,53.46,106.12,32.1,148.83,70.29,82.88,74.11,46.54,155.17,119.52,235.04,76.66,83.89,143.35,24.48,255.01,106.87,119.55,88.2,81.1,182.92,180.41,246.13,141.01,89.76,287.34-55.65,410.97,34.29,37.71,27.44,61.91,68.51,77.54,112.77l100.32-.91c31.28-.29,55.54-25.9,55.54-58.75v-899.38c0-16.15-5.9-30.96-15.54-42.24Z" fill="url(#r)" mix-blend-mode="multiply" opacity=".37"/></g><g><path d="m1999.56,1393.87c4.89-7.58,13.81-23.7,14.38-45.35,1.11-42.07-30.1-74.89-34.29-73.01-2.26,1.02.61,13.34,2.21,18.81,3.34,11.37,6.94,12.47,6.64,17.7-.62,10.75-16.14,11.17-24.33,25.44-5.9,10.28-6.37,24.92,0,36.5,10.57,19.22,34.39,19.9,35.4,19.91Z" fill="url(#s)"/><polygon points="2666.14 2307.7 2654.15 2266.43 2704.22 2229.32 2735.43 2217.65 2716.95 2275.4 2666.14 2307.7" fill="url(#t)"/><path d="m2604.16,3138.95s27.39,68.9,20.18,99.46c29.41-.58,48.43-4.32,48.43-4.32,0,0-11.82-31.42-14.13-46.99-3.12-21.03-2.88-55.06-2.88-55.06l-51.61,6.92Z" fill="url(#u)"/><path d="m2302.24,3300.11c1.77,2.14,4.91,6.6,5.18,12.66.14,3.29-.61,5.99-1.55,8.48-4.67,12.29-12.01,13.91-19.92,26.95-4.84,7.97-3.92,10.37-8.35,13.97-5.84,4.74-12.9,5.01-19.03,5.08-10.35.12-25.24-.25-44-2.49,9.83-12.67,20.28-25.54,31.4-38.53,4.88-5.7,9.74-11.26,14.6-16.7l28.9-9.77c4.26.11,8.52.23,12.78.34Z" fill="#26264f"/><path d="m2278.21,3159.79s-16.52,86.19,4.5,110.33c17.91,24.14-8.65,6.92-8.65,6.92l-31.71,27.68-19.03,32.87s17.51-84.36,12.84-117.84c-4.67-33.48-7.01-56.06-7.01-56.06l49.05-3.89Z" fill="url(#v)"/><path d="m2215.93,2216.95s-44.38,39.71-44.38,203.2,21.02,518.52,21.02,518.52l33.64,254.18s34.88,1.24,58.24-5.77c21.02-95.76,55.28-257.76,38.92-393.23-7.01-147.15,58.39-331.67,58.39-331.67,0,0,56.06,186.86,95.76,280.28,39.71,93.43,115.3,386.11,122.31,407.13,46.46,4.21,66.31-8.07,66.31-8.07,0,0-29.79-314.98-57.82-434.1-28.03-119.12-25.69-406.41-72.41-488.16-105.11-42.04-319.99-2.34-319.99-2.34Z" fill="url(#w)"/><path d="m2215.93,2216.95s-44.38,39.71-44.38,203.2,21.02,518.52,21.02,518.52l33.64,254.18s34.88,1.24,58.24-5.77c21.02-95.76,55.28-257.76,38.93-393.23-7.01-147.15,58.39-331.67,58.39-331.67,0,0,56.06,186.86,95.76,280.28,39.71,93.43,115.3,386.11,122.31,407.13,46.46,4.21,66.31-8.07,66.31-8.07,0,0-29.79-314.98-57.82-434.1-28.03-119.12-25.69-406.41-72.41-488.16-105.11-42.04-319.99-2.33-319.99-2.33Z" fill="url(#x)"/><path d="m2446.46,2516.53c13.84,89.95,41.51,138.38,110.7,200.65,55.35,41.51,13.84,131.46,34.6,200.65,6.92,20.76,27.68,41.51,34.59,62.27,25.75,51.49,1.7,114.48,13.37,169,18.17-2.51,26.41-7.56,26.41-7.56,0,0-29.79-314.98-57.82-434.1-28.03-119.12-25.69-406.41-72.41-488.16-105.11-42.04-319.99-2.33-319.99-2.33,0,0-44.38,39.71-44.38,203.2,0,13.27.14,27.81.4,43.3,46.07,40.77,140.3,49.83,198.41,4.64,3.51-2.63,7.25-4.25,11.1-5.03.18-.52.3-.87.3-.87,0,0,.1.32.24.81,26.45-4.83,58.46,29.52,64.46,53.52Z" fill="url(#y)" mix-blend-mode="multiply" opacity=".37"/><g><path d="m2617.13,3264.56s-6.83,0-6.26,8.82c.57,8.82-3.07,39.15,31.62,40.57,34.7,1.42,40.05-2.46,41.19-2.46s-9.1-29.01-9.1-29.01l-11.09-14.22-29.86-3.13-16.5-.57Z" fill="#26264f"/><path d="m2694.07,3295c-.74-7.32-4.84-18.85-8.96-28.13-6.13-13.78-1.1-18.94-6.95-31.49-2.02-4.34-3.99-8.46-8.27-12.54-.98-.94-10.56-9.79-24.5-9.34-2.74.09-6.97.27-11.54,2.71-5.38,2.87-8.08,7.17-10.38,10.95-3.62,5.94-2.79,7.77-8.36,24.79-.45,1.37-1.43,4.34-2.18,8.44-.58,3.14-.81,5.77-.91,7.57,9.1,0,44.09,1.42,51.48,6.83,7.4,5.4,11.09,14.51,11.09,23.61s4.55,13.37,9.1,13.08c4.07-.26,12.14-7.78,10.38-16.49Z" fill="#444b8c"/></g><path d="m2273.78,3258.02c7.82.12,13.55,6.34,17.87,21.33,4.33,14.99,25.08,28.25.87,25.08-24.22-3.17-41.8,31.13-50.45,43.82-8.65,12.68-31.87,23.95-31.29,11.56.58-12.4,10.82-18.19,13.7-30.87,2.88-12.69,31.47-71.2,49.3-70.92Z" fill="#444b8c"/><path d="m2684.52,2236.69c5.75-15.98,41.61-120.93-16.36-216.64-47.45-78.35-129.57-103.92-141.28-107.37-71.27-21.05-106.99,5.99-129.48-18.89-38.16-42.23,5.07-186.08,88.68-214.9,94.25-32.48,207.32,92.41,253.14,174.44,60.11,107.62,45.31,214.58,41.84,236.61-9.04,57.24-30.05,100.91-45.62,127.72-16.97,6.35-33.94,12.69-50.92,19.04Z" fill="url(#z)"/><path d="m2438.39,1658.58c-84.13-3.37-149.01-2.03-185.66,34.59-38.71,38.68.41,82.36-8,183.55-12.87,154.92-111.59,192.77-119.02,349.94-2.5,52.96,6.46,96.24,13.42,122.31,21.67,26.98,57.13,65.06,109.46,96.9,76.16,46.33,120.32,38.26,229.69,68.19,178.9,48.96,194.82,107.27,283.53,92.42,89.65-15.01,168.31-90.46,158.81-131.89-5.69-24.81-41.83-17.78-83.44-55.63-53.63-48.77-32.95-95.33-73.72-147.74-58.57-75.28-140.16-29.26-190.07-94.51-50.48-66-30.46-196.06,12.1-266.95,27.8-46.3,39.7-100.57,63.35-149.12,1.97-4.03,4.25-10.65,3.24-18.92-3.84-31.62-56.55-48.77-96.47-61.35-60.89-19.19-110.31-21.51-117.22-21.78Z" fill="url(#aa)"/><path d="m2367.53,1655.1l16.59-5.11s4.34,22.46,57.69,25.27c29.61,0,48.76-16.59,48.76-16.59l11.34,8.26s-24.87,31.07-64.43,30.28c-51.05-1.02-69.94-42.12-69.94-42.12Z" fill="url(#ab)"/><g><path d="m2401.31,1586.76c3.2-24.67,22.7-40.48,26.96-43.86,17.82-14.16,21.45-15.59,27.57-16.75l8.36-1.27s.45.01.91.04c4.89.3,19.56,6.02,22.22,7.89,8.52,5.99,2.25,48.41-23.58,101.16-1.02,4.47-2.03,8.94-3.05,13.4,22.51,3.96,28.08,8.02,28.26,11.26.38,7.02-24.26,15.98-47.09,16.56-28.64.73-59.05-11.59-58.46-20.79.24-3.72,5.64-8.31,26.43-12.82,3.25-4.57,6.5-9.14,9.75-13.71-2.95-3.58-20.63-22.95-18.28-41.12Z" fill="url(#ac)"/><path d="m2436.72,1577.47c6.5-3.89,11.44,4.47,8.38,11.77-3.06,7.3-13.34,11.87-19.58,7.52-6.24-4.35,2.45-14.06,11.19-19.29Z" fill="url(#ad)"/><path d="m3278.62,1577.35c-85.5-92.78-284.44-67.34-394.78,7.18-51.27,34.63-77.59,75.52-138.17,78.96-46.06,2.61-119.33-14.71-157.91-64.6-4.86-6.29-24.3-32.65-53.5-65.89-12.87-14.66-25.67-28.41-45.51-31.52-5.04-.79-21.81-3.52-32.9,7.31-8.98,8.77-11.19,24.03-8.53,35.03,1.59,6.58,3.65,7.27,3.35,11.57-.82,12.09-22.85,17.36-21.63,23.45.87,4.35,12.34,2.76,14.32,8.22,2.16,5.99-10.43,11.14-15.84,26.2-10.14,6.79-16.54,23.67-18.76,46.27-3.26,33.21.08,60.2,6.37,80.53,30.3,97.86,51.98,167.86,104.43,206.95,69.45,51.75,131.99,3.97,308.65-3.59,241.9-10.35,302.22,71.65,389.16,15.55,108.56-70.04,150.02-285.3,61.25-381.63Z" fill="url(#ae)"/></g><path d="m2009.78,1387.97c-2.16,20.24-9.45,109.78,52.31,185.38,57.71,70.64,139.44,84.75,154.63,87.05,73.48,11.1,105.17-20.57,130.85,1.01,43.58,36.62,20.42,185.03-58.47,225-88.92,45.06-218.01-63.2-274.61-138.19-74.26-98.39-74.23-206.37-73.8-228.66,1.13-57.94,15.97-104.07,27.73-132.76,4.83-1.45,12.18-3.06,21.2-2.75,8.59.3,15.52,2.23,20.15,3.92Z" fill="url(#af)"/><path d="m2764.51,2547.26c-21.51-22.05,2.17-66.53-29.61-99.59-29.49-30.69-62.88-5.9-110.36-32.3-60.9-33.87-44.12-95.87-102.29-129.2-41.83-23.97-61.49,1.8-126.51-10.77-64.92-12.55-143.98-57.3-183.04-137.28-16.6-33.98-22.71-67.77-23.52-97.96-29.2,52.16-59.48,102.15-63.47,186.51-2.5,52.96,6.46,96.24,13.42,122.31,21.67,26.98,57.13,65.06,109.46,96.9,76.16,46.33,120.32,38.26,229.69,68.19,178.9,48.96,194.82,107.27,283.53,92.42,57.3-9.59,109.98-43.87,138.15-78.18-82.68,36.8-119.85,34.97-135.46,18.96Z" fill="url(#ag)" mix-blend-mode="multiply" opacity=".3"/></g><g><path d="m1771.17,1801.41c0,198.87-163.57,366.18-372.04,373.93-216.24,8.04-397.56-157.5-397.56-370.01s181.31-379.9,397.56-374.06c208.47,5.63,372.04,171.27,372.04,370.14Z" fill="url(#ah)"/><path d="m1790.37,1801.41c0,198.87-163.57,366.18-372.04,373.93-216.24,8.04-397.56-157.5-397.56-370.01s181.31-379.9,397.56-374.06c208.47,5.63,372.04,171.27,372.04,370.14Z" fill="url(#ai)"/><path d="m1742.94,1801.65c0,173.52-143.05,318.9-324.6,324.89-187.42,6.18-343.87-137.67-343.87-321.49s156.44-329.26,343.87-324.99c181.55,4.14,324.6,148.07,324.6,321.59Z" fill="url(#aj)" mix-blend-mode="multiply" opacity=".3"/><path d="m1719.32,1801.73c0,165.19-136.29,303.41-309.02,308.87-178.04,5.63-326.43-131.14-326.43-305.63s148.39-312.77,326.43-308.95c172.73,3.7,309.02,140.53,309.02,305.72Z" fill="url(#ak)"/><g><path d="m1343.39,1880.7l-110.65,1.29-21.27,61.05-68.38,1.15,115.71-295.84,58.48.48,112.97,290.52-65.86,1.11-21.01-59.76Zm-93.47-47.99l76.57-.58-38.37-109.44-38.2,110.02Z" fill="#fff"/><path d="m1458.11,1938.88v-288.91l90.81.74c25.68.21,48.56,6.05,68.66,17.49,20.03,11.4,35.62,27.48,46.8,48.25,11.15,20.73,16.73,44.25,16.73,70.58v13.04c0,26.34-5.47,49.8-16.43,70.43-10.98,20.67-26.5,36.82-46.6,48.46-20.17,11.68-43.01,17.81-68.56,18.37l-91.41,1.54Zm60.97-240.44v191.85l29.24-.37c23.55-.3,41.48-8.05,53.85-23.22,12.34-15.14,18.63-36.65,18.9-64.56v-15.06c0-28.95-6.09-50.9-18.3-65.86-12.23-15-30.16-22.56-53.84-22.65l-29.84-.12Z" fill="#fff"/></g></g></g></g></g></svg>