<?xml version="1.0" encoding="UTF-8"?><svg xmlns="http://www.w3.org/2000/svg" width="2908.71" height="2864.59" xmlns:xlink="http://www.w3.org/1999/xlink" viewBox="0 0 2908.71 2864.59"><defs><linearGradient id="b" x1="-1582.51" y1="1731.74" x2="-2113.71" y2="2358.21" gradientTransform="translate(2581.42)" gradientUnits="userSpaceOnUse"><stop offset="0" stop-color="#311944"/><stop offset="1" stop-color="#893976"/></linearGradient><linearGradient id="c" x1="-1647.94" y1="1676.26" x2="-2179.15" y2="2302.73" xlink:href="#b"/><linearGradient id="d" x1="974.88" y1="1286.97" x2="546.1" y2="1792.65" gradientTransform="translate(1082.11) rotate(-180) scale(1 -1)" gradientUnits="userSpaceOnUse"><stop offset="0" stop-color="#e38ddd"/><stop offset="1" stop-color="#9571f6"/></linearGradient><linearGradient id="e" x1="-1337.23" y1="582.2" x2="-847" y2="3293.77" gradientTransform="translate(2581.42)" gradientUnits="userSpaceOnUse"><stop offset="0" stop-color="#493264"/><stop offset="1" stop-color="#6165d7"/></linearGradient><linearGradient id="f" x1="-1504.97" y1="587.16" x2="-1008.64" y2="3332.49" gradientTransform="translate(2581.42)" gradientUnits="userSpaceOnUse"><stop offset="0" stop-color="#aa80f9"/><stop offset="1" stop-color="#6165d7"/></linearGradient><linearGradient id="g" x1="-789.38" y1="964.48" x2="-1765.91" y2="2116.15" xlink:href="#d"/><linearGradient id="h" x1="1989.01" y1="1540.32" x2="2768.21" y2="1540.32" gradientUnits="userSpaceOnUse"><stop offset="0" stop-color="#d8dee8"/><stop offset="1" stop-color="#fff"/></linearGradient><clipPath id="i"><path d="m2359.76,2425.93c51.54,0,102.18-21.62,150.52-64.26,49.2-43.4,93.69-106.17,132.25-186.58,81.05-169.03,125.68-394.46,125.68-634.77s-44.64-465.73-125.68-634.77c-38.56-80.41-83.05-143.18-132.25-186.58-48.34-42.64-98.98-64.26-150.52-64.26s-102.18,21.62-150.52,64.26c-49.2,43.4-93.69,106.17-132.25,186.58-81.05,169.03-125.68,394.46-125.68,634.77s44.64,465.74,125.68,634.77c38.56,80.41,83.05,143.18,132.25,186.58,48.34,42.64,98.98,64.26,150.52,64.26Z" fill="none"/></clipPath><linearGradient id="j" x1="-680.97" y1="667.87" x2="-360.89" y2="2438.3" gradientTransform="translate(2581.42)" gradientUnits="userSpaceOnUse"><stop offset="0" stop-color="#ffc444"/><stop offset="1" stop-color="#f36f56"/></linearGradient><linearGradient id="k" x1="-496.4" y1="895.94" x2="-260.23" y2="2202.25" xlink:href="#j"/><linearGradient id="l" x1="1172.07" y1="2798.49" x2="2037.24" y2="2798.49" gradientUnits="userSpaceOnUse"><stop offset="0" stop-color="#f57e53"/><stop offset="0" stop-color="#f58152"/><stop offset=".04" stop-color="#f8994d"/><stop offset=".08" stop-color="#fbac49"/><stop offset=".13" stop-color="#fdb946"/><stop offset=".2" stop-color="#fec144"/><stop offset=".32" stop-color="#ffc444"/><stop offset=".45" stop-color="#fdb946"/><stop offset=".69" stop-color="#f99c4c"/><stop offset="1" stop-color="#f36f56"/></linearGradient><linearGradient id="m" x1="1608.63" y1="2701.03" x2="1654.24" y2="3082.86" gradientUnits="userSpaceOnUse"><stop offset="0" stop-color="#ffdb44"/><stop offset="1" stop-color="#feef06"/></linearGradient><linearGradient id="n" x1="1606.65" y1="2684" x2="1620.66" y2="2801.27" xlink:href="#m"/><linearGradient id="o" x1="-794.14" y1="558.04" x2="-780.18" y2="674.89" gradientTransform="translate(825.68 3347.02) rotate(-180)" gradientUnits="userSpaceOnUse"><stop offset="0" stop-color="#f36f56"/><stop offset=".31" stop-color="#f99c4c"/><stop offset=".55" stop-color="#fdb946"/><stop offset=".68" stop-color="#ffc444"/><stop offset=".8" stop-color="#fec144"/><stop offset=".87" stop-color="#fdb946"/><stop offset=".92" stop-color="#fbac49"/><stop offset=".96" stop-color="#f8994d"/><stop offset="1" stop-color="#f58152"/><stop offset="1" stop-color="#f57e53"/></linearGradient><linearGradient id="p" x1="1067.54" y1="2710.89" x2="1932.71" y2="2710.89" xlink:href="#l"/><linearGradient id="q" x1="1504.1" y1="2613.43" x2="1549.71" y2="2995.26" xlink:href="#m"/><linearGradient id="r" x1="1502.12" y1="2596.4" x2="1516.13" y2="2713.67" xlink:href="#m"/><linearGradient id="s" x1="-689.61" y1="645.65" x2="-675.65" y2="762.5" xlink:href="#o"/><linearGradient id="t" x1="1157.74" y1="2623.54" x2="2022.91" y2="2623.54" xlink:href="#l"/><linearGradient id="u" x1="1594.3" y1="2526.08" x2="1639.91" y2="2907.91" xlink:href="#m"/><linearGradient id="v" x1="1592.31" y1="2509.05" x2="1606.32" y2="2626.32" xlink:href="#m"/><linearGradient id="w" x1="-779.8" y1="732.99" x2="-765.85" y2="849.84" xlink:href="#o"/><linearGradient id="x" x1="1212.47" y1="2535.93" x2="2077.64" y2="2535.93" xlink:href="#l"/><linearGradient id="y" x1="1649.03" y1="2438.48" x2="1694.64" y2="2820.31" xlink:href="#m"/><linearGradient id="z" x1="1647.05" y1="2421.45" x2="1661.06" y2="2538.71" xlink:href="#m"/><linearGradient id="aa" x1="-834.54" y1="820.6" x2="-820.58" y2="937.45" xlink:href="#o"/><linearGradient id="ab" y1="2441.42" y2="2441.42" xlink:href="#l"/><linearGradient id="ac" x1="1608.63" y1="2343.96" x2="1654.24" y2="2725.79" xlink:href="#m"/><linearGradient id="ad" x1="1606.65" y1="2326.93" x2="1620.66" y2="2444.2" xlink:href="#m"/><linearGradient id="ae" x1="-794.14" y1="915.11" x2="-780.18" y2="1031.96" xlink:href="#o"/><linearGradient id="af" x1="1067.54" y1="2353.82" x2="1932.71" y2="2353.82" xlink:href="#l"/><linearGradient id="ag" x1="1504.1" y1="2256.36" x2="1549.71" y2="2638.19" xlink:href="#m"/><linearGradient id="ah" x1="1502.12" y1="2239.33" x2="1516.13" y2="2356.6" xlink:href="#m"/><linearGradient id="ai" x1="-689.61" y1="1002.72" x2="-675.65" y2="1119.57" xlink:href="#o"/><linearGradient id="aj" x1="1157.74" y1="2266.47" x2="2022.91" y2="2266.47" xlink:href="#l"/><linearGradient id="ak" x1="1594.3" y1="2169.01" x2="1639.91" y2="2550.84" xlink:href="#m"/><linearGradient id="al" x1="1592.31" y1="2151.98" x2="1606.32" y2="2269.25" xlink:href="#m"/><linearGradient id="am" x1="-779.8" y1="1090.06" x2="-765.85" y2="1206.91" xlink:href="#o"/><linearGradient id="an" x1="1110.82" y1="2178.86" x2="1975.99" y2="2178.86" xlink:href="#l"/><linearGradient id="ao" x1="1547.38" y1="2081.41" x2="1592.99" y2="2463.24" xlink:href="#m"/><linearGradient id="ap" x1="1545.4" y1="2064.38" x2="1559.41" y2="2181.64" xlink:href="#m"/><linearGradient id="aq" x1="-732.89" y1="1177.67" x2="-718.93" y2="1294.52" xlink:href="#o"/><linearGradient id="ar" x1="1929.36" y1="1097.29" x2="2794.54" y2="1097.29" gradientTransform="translate(1718.91 -50.76) rotate(54.58)" xlink:href="#l"/><linearGradient id="as" x1="2365.93" y1="999.84" x2="2411.53" y2="1381.62" gradientTransform="translate(1718.91 -50.76) rotate(54.58)" xlink:href="#m"/><linearGradient id="at" x1="2363.94" y1="982.82" x2="2377.95" y2="1100.07" gradientTransform="translate(1718.91 -50.76) rotate(54.58)" xlink:href="#m"/><linearGradient id="au" x1="-1550.87" y1="2258.79" x2="-1536.91" y2="2375.62" gradientTransform="translate(-529.31 2562.22) rotate(-125.42)" xlink:href="#o"/><linearGradient id="av" x1="-1491.79" y1="306.48" x2="-606.06" y2="908.11" gradientTransform="translate(-613.29) rotate(-180) scale(1 -1)" gradientUnits="userSpaceOnUse"><stop offset="0" stop-color="#311944"/><stop offset="1" stop-color="#6b3976"/></linearGradient><linearGradient id="aw" x1="953.91" y1="653.19" x2="976.76" y2="1020.46" gradientUnits="userSpaceOnUse"><stop offset="0" stop-color="#ff9085"/><stop offset="1" stop-color="#fb6fbb"/></linearGradient><linearGradient id="ax" x1="-1883.5" y1="1696.88" x2="-1764.22" y2="1696.88" xlink:href="#av"/><linearGradient id="ay" x1="-1827.25" y1="1743.89" x2="-1649.28" y2="1209.99" gradientTransform="translate(-613.29) rotate(-180) scale(1 -1)" xlink:href="#j"/><linearGradient id="az" x1="-1864.52" y1="1477.85" x2="-1791.57" y2="1477.85" xlink:href="#av"/><linearGradient id="ba" x1="-1906.8" y1="1678.16" x2="-1787.68" y2="1320.79" gradientTransform="translate(-613.29) rotate(-180) scale(1 -1)" xlink:href="#j"/><linearGradient id="bb" x1="-1760.02" y1="1076.08" x2="-1671.17" y2="1589.75" gradientTransform="translate(-613.29) rotate(-180) scale(1 -1)" gradientUnits="userSpaceOnUse"><stop offset="0" stop-color="#ab316d"/><stop offset="1" stop-color="#792d3d"/></linearGradient><linearGradient id="bc" x1="-1634.54" y1="1684.85" x2="-1508.2" y2="1285.02" xlink:href="#bb"/><linearGradient id="bd" x1="-1634.53" y1="1684.86" x2="-1508.19" y2="1285.03" xlink:href="#bb"/><linearGradient id="be" x1="-1456.76" y1="1024.24" x2="-1368.11" y2="1536.72" xlink:href="#bb"/><linearGradient id="bf" x1="-1584.92" y1="706.06" x2="-797.46" y2="994.43" gradientTransform="translate(-613.29) rotate(-180) scale(1 -1)" xlink:href="#aw"/><linearGradient id="bg" x1="2414.26" y1="441.15" x2="2423.32" y2="200.02" gradientTransform="translate(-1594.55 -175.24) rotate(10.28)" xlink:href="#j"/><linearGradient id="bh" x1="2411.44" y1="228.28" x2="2407.56" y2="540.48" gradientTransform="translate(-1594.55 -175.24) rotate(10.28)" xlink:href="#j"/><linearGradient id="bi" x1="-98.56" y1="1017.54" x2="245.59" y2="1017.54" gradientTransform="translate(896.71) rotate(-180) scale(1 -1)" gradientUnits="userSpaceOnUse"><stop offset="0" stop-color="#40447e"/><stop offset="1" stop-color="#3c3b6b"/></linearGradient><linearGradient id="bj" x1="-318.65" y1="800.45" x2="-93.01" y2="1024.28" xlink:href="#bi"/><linearGradient id="bk" x1="-318.65" y1="800.45" x2="-93.01" y2="1024.28" xlink:href="#bi"/><linearGradient id="bl" x1="589.21" y1="727.82" x2="610.27" y2="1066.34" gradientTransform="translate(-175.01 38.44) rotate(-6.66)" xlink:href="#aw"/><linearGradient id="bm" x1="779.75" y1="949.68" x2="665.34" y2="1057.49" gradientTransform="matrix(1, 0, 0, 1, 0, 0)" xlink:href="#j"/><linearGradient id="bn" x1="1327.12" y1="151.32" x2="1584.98" y2="212.23" gradientTransform="matrix(1, 0, 0, 1, 0, 0)" xlink:href="#b"/><linearGradient id="bo" x1="-2643.93" y1="81.31" x2="-2422.87" y2="491.31" gradientTransform="translate(-1101.89) rotate(-180) scale(1 -1)" xlink:href="#aw"/><linearGradient id="bp" x1="-2708.72" y1="108.4" x2="-2492.09" y2="543.12" gradientTransform="translate(-1101.89) rotate(-180) scale(1 -1)" xlink:href="#aw"/><linearGradient id="bq" x1="1683.39" y1="360.99" x2="1836.19" y2="535.86" gradientTransform="matrix(1, 0, 0, 1, 0, 0)" xlink:href="#j"/><linearGradient id="br" x1="-3000.87" y1="388.4" x2="-2702.61" y2="941.6" gradientTransform="translate(-1101.89) rotate(-180) scale(1 -1)" xlink:href="#j"/><linearGradient id="bs" x1="-3083.96" y1="417.72" x2="-2789.85" y2="1007.92" gradientTransform="translate(-1101.89) rotate(-180) scale(1 -1)" xlink:href="#j"/><linearGradient id="bt" x1="1108.14" y1="548.29" x2="1391.34" y2="563.46" gradientTransform="matrix(1, 0, 0, 1, 0, 0)" xlink:href="#f"/><linearGradient id="bu" x1="-2405.27" y1="433.85" x2="-2161.93" y2="885.16" gradientTransform="translate(-1101.89) rotate(-180) scale(1 -1)" xlink:href="#f"/><linearGradient id="bv" x1="-2475.67" y1="460.59" x2="-2235.99" y2="941.55" gradientTransform="translate(-1101.89) rotate(-180) scale(1 -1)" xlink:href="#d"/><linearGradient id="bw" x1="16.73" y1="2196.64" x2="-419.67" y2="2715.56" gradientTransform="translate(519.32) rotate(-180) scale(1 -1)" xlink:href="#d"/><linearGradient id="bx" x1="152.46" y1="2739.26" x2="117.9" y2="2425.05" gradientTransform="translate(548.38 50.2) rotate(176.98) scale(1 -1)" xlink:href="#f"/></defs><g isolation="isolate"><g id="a"><g><path d="m1169.98,12.26S159.85,56.15,102.54,944.54c-57.31,888.39-322.38,1733.66,322.38,1784.11,644.76,50.45,2156.38,148.46,2371.3-380.8C3011.14,1818.6,3118.6-174.11,1169.98,12.26Z" fill="#f4f7fa"/><g><path d="m912.37,2686.81c-68.6-4.39-133.38-47.86-161.25-114.79l-392.98-943.92c-35.78-85.95,4.58-183.23,90.6-217.72,86.63-34.73,221.67,6.18,258.37,93.04l403.15,954.16c38.01,89.96-4.85,188.33-95.25,219.28-22.26,7.62-80.02,11.4-102.65,9.95Z" fill="url(#b)"/><path d="m448.74,1410.38c86.63-34.73,221.67,6.18,258.37,93.04l368.62,872.43c-61.69-15.85-134.72-14.43-204.83-75.9-116.7-102.33-59.29-233.47-151.79-350.28-42.28-53.4-120.52-109.61-279.78-126.52l-81.2-195.04c-35.78-85.95,4.58-183.23,90.6-217.72Z" fill="url(#c)" mix-blend-mode="multiply" opacity=".3"/><path d="m212.17,1223.06c3.38,0,6.73.26,10.05.71l242.92-2.67v631.63l-234.57-3.21c-6.03,1.53-12.17,2.34-18.4,2.34-83.26,0-150.75-140.76-150.75-314.4s67.49-314.4,150.75-314.4Z" fill="url(#d)"/><path d="m465.14,1221.11c-92.01,210.32-92.01,419.9,0,631.63l1807,580.97,18.66-1772.78L465.14,1221.11Z" fill="url(#e)"/><path d="m1784.34,1912.61c-171.81-65.09-225.19-314.35-424.66-322.74-156.51-6.58-203.67,145.39-357.02,129-156.98-16.78-183.34-186.03-359.15-245.69-79.93-27.12-163.55-22.11-244.71.82-10.9,125.61,11.11,251.64,66.35,378.73l1807,580.97-106.9-601.92c-178.17,103.93-297.61,112.38-380.9,80.82Z" fill="url(#f)" mix-blend-mode="multiply" opacity=".3"/><ellipse cx="2359.75" cy="1540.32" rx="439.55" ry="916.72" fill="url(#g)"/><path d="m2359.76,2425.93c51.54,0,102.18-21.62,150.52-64.26,49.2-43.4,93.69-106.17,132.25-186.58,81.05-169.03,125.68-394.46,125.68-634.77s-44.64-465.73-125.68-634.77c-38.56-80.41-83.05-143.18-132.25-186.58-48.34-42.64-98.98-64.26-150.52-64.26s-102.18,21.62-150.52,64.26c-49.2,43.4-93.69,106.17-132.25,186.58-33.89,70.68-61.41,151.21-81.97,238.58-28.6,121.57,54.07,248.49,54.07,388.31,0,148.68-80.7,299.55-48.48,427.01,19.86,78.54,45.47,151.19,76.37,215.64,38.56,80.41,83.05,143.18,132.25,186.58,48.34,42.64,98.98,64.26,150.52,64.26Z" fill="url(#h)"/><g clip-path="url(#i)"><path d="m2395.93,1552.35c0,232.25-153.79,416.66-340.82,411.96-184.14-4.63-331.34-191.37-331.34-417.16,0-225.79,147.2-410.25,331.34-412.03,187.03-1.81,340.82,184.98,340.82,417.23Z" fill="url(#j)"/><path d="m2366.38,1548.57c0,172.46-74.93,309.4-166.06,305.91-89.72-3.44-161.44-142.11-161.44-309.77s71.72-304.64,161.44-305.96c91.13-1.34,166.06,137.36,166.06,309.83Z" fill="url(#k)" mix-blend-mode="multiply" opacity=".3"/></g></g><g><g><path d="m1236.36,2732.39v83.4c0,26.95,168.35,48.8,376.02,48.8s376.02-21.85,376.02-48.8v-83.4h-752.03Z" fill="url(#l)"/><path d="m1988.39,2732.39c0,26.95-168.35,48.8-376.02,48.8s-376.02-21.85-376.02-48.8,168.35-48.8,376.02-48.8,376.02,21.85,376.02,48.8Z" fill="url(#m)"/><path d="m1612.38,2784.55c-183.92,0-376.23-17.57-376.23-51.45,0-1.86.66-5.13,2.52-5.13s1.06,2.56,1.06,4.42c0,21.49,153.04,45.43,372.65,45.43s372.65-23.94,372.65-45.43c0-1.86.32-3.6,2.18-3.6s1.41,2.48,1.41,4.34c0,33.88-192.32,51.42-376.24,51.42Z" fill="url(#n)"/><path d="m1576.85,2735.11c3.69-2.55,7.62-5.07,11.82-7.56,4.16-2.48,9.59-4.73,16.15-6.73,6.61-2.01,14.87-3.64,24.79-4.9,9.92-1.27,22.32-1.93,37.13-2,14.53-.07,28.16.39,40.93,1.39,12.73.99,23.96,2.48,33.65,4.46,9.66,1.98,17.55,4.42,23.63,7.33,6.04,2.92,9.64,6.25,10.8,10.01l42.34.43c3.07.02,5.79.27,8.12.75,2.37.48,3.51,1.09,3.51,1.83l.02,3.49-54.43-.52c-1.91,4.27-6.77,8.17-14.59,11.72-7.78,3.55-17.73,6.61-29.85,9.21l-19.82-2.76c-1.77-.27-3.23-.62-4.38-1.04-1.14-.42-1.7-.87-1.7-1.36,0-.67,1.53-1.43,4.6-2.29,3.07-.86,6.53-1.93,10.38-3.2,3.85-1.26,7.63-2.76,11.36-4.49,3.69-1.72,6.17-3.79,7.45-6.19l-128.47-1.27c-3.37,2.48-7.18,4.92-11.35,7.32-4.2,2.4-9.74,4.56-16.67,6.47-6.92,1.92-15.54,3.47-25.85,4.67-10.35,1.19-23.31,1.83-38.98,1.91-11.78.06-23.24-.39-34.47-1.34-11.23-.95-21.2-2.37-29.91-4.26-8.71-1.9-15.85-4.24-21.46-7.03-5.57-2.79-8.69-6-9.34-9.62l-34.86-.36c-3.07-.02-5.79-.26-8.24-.72-2.4-.47-3.63-1.08-3.63-1.86l-.02-3.49,47.66.45c2.11-3.67,6.43-6.87,13.03-9.6,6.6-2.73,14.66-5.15,24.18-7.28l15.96,2.19c4.85.68,7.25,1.48,7.26,2.39,0,.49-.98,1.11-2.98,1.84-2.04.73-4.4,1.61-7.16,2.62-2.71,1.02-5.38,2.21-7.94,3.58-2.59,1.37-4.51,2.92-5.81,4.65l117.13,1.17Zm-117.57,4.75c.96,2.29,3.09,4.25,6.33,5.91,3.24,1.66,7.26,3.02,12.11,4.09,4.85,1.07,10.29,1.85,16.32,2.35,6.07.5,12.41.73,19.03.7,7.72-.04,14.45-.37,20.2-1,5.71-.63,10.74-1.48,15.11-2.56,4.33-1.08,8.14-2.33,11.36-3.75,3.22-1.43,6.09-2.97,8.68-4.64l-109.14-1.1Zm279.68-3.12c-.96-2.32-3.29-4.35-6.92-6.09-3.63-1.74-8.29-3.21-13.92-4.39-5.64-1.19-12.22-2.07-19.74-2.65-7.49-.58-15.76-.85-24.82-.8-8.03.04-15,.4-20.79,1.08-5.79.68-10.82,1.59-15.11,2.74-4.25,1.15-7.9,2.49-10.85,4.01-2.98,1.53-5.77,3.16-8.32,4.9l120.48,1.2Z" fill="#fcb048"/><path d="m1612.43,2688.87c-167.66,0-342.23,14.75-370.15,43.31,1.09,1.01,2.11,2.08,3.05,3.21,23.54-19.83,167.68-39.79,367.1-39.79s351,21.01,368.74,41.32c.87-1.11,1.8-2.18,2.81-3.19-23.06-29.57-200.91-44.87-371.55-44.87Z" fill="url(#o)"/></g><g><path d="m1131.83,2644.79v83.4c0,26.95,168.35,48.8,376.02,48.8s376.02-21.85,376.02-48.8v-83.4h-752.03Z" fill="url(#p)"/><path d="m1883.86,2644.79c0,26.95-168.35,48.8-376.02,48.8s-376.02-21.85-376.02-48.8,168.35-48.8,376.02-48.8,376.02,21.85,376.02,48.8Z" fill="url(#q)"/><path d="m1507.85,2696.95c-183.92,0-376.24-17.57-376.24-51.45,0-1.86.66-5.13,2.52-5.13s1.06,2.56,1.06,4.42c0,21.49,153.04,45.43,372.65,45.43s372.65-23.94,372.65-45.43c0-1.86.32-3.6,2.18-3.6s1.41,2.48,1.41,4.34c0,33.88-192.32,51.42-376.24,51.42Z" fill="url(#r)"/><path d="m1472.32,2647.51c3.69-2.55,7.62-5.07,11.82-7.56,4.16-2.48,9.59-4.73,16.15-6.73,6.61-2.01,14.87-3.64,24.79-4.9,9.92-1.27,22.32-1.93,37.13-2,14.53-.07,28.16.39,40.93,1.39,12.73.99,23.96,2.48,33.66,4.46,9.66,1.98,17.55,4.42,23.63,7.33,6.04,2.91,9.64,6.25,10.8,10.01l42.34.43c3.07.02,5.79.27,8.12.75,2.37.48,3.51,1.09,3.51,1.83l.02,3.49-54.43-.52c-1.91,4.27-6.77,8.17-14.59,11.72-7.78,3.55-17.73,6.61-29.85,9.21l-19.82-2.76c-1.77-.27-3.23-.62-4.38-1.04-1.14-.41-1.7-.87-1.7-1.36,0-.67,1.53-1.44,4.6-2.29,3.07-.86,6.53-1.93,10.38-3.2,3.85-1.27,7.63-2.76,11.36-4.49,3.69-1.73,6.16-3.79,7.45-6.19l-128.47-1.27c-3.37,2.48-7.18,4.92-11.35,7.32-4.2,2.4-9.74,4.56-16.67,6.47-6.92,1.92-15.54,3.47-25.85,4.67-10.35,1.19-23.31,1.83-38.98,1.91-11.77.06-23.24-.39-34.47-1.34-11.23-.95-21.2-2.37-29.91-4.26-8.71-1.9-15.85-4.24-21.46-7.03-5.57-2.79-8.69-6-9.34-9.62l-34.86-.36c-3.07-.02-5.79-.26-8.23-.73-2.41-.47-3.63-1.08-3.63-1.86l-.02-3.49,47.66.45c2.11-3.67,6.43-6.88,13.03-9.6,6.6-2.73,14.66-5.15,24.19-7.28l15.96,2.19c4.85.68,7.25,1.48,7.26,2.39,0,.49-.98,1.1-2.98,1.84-2.04.73-4.4,1.61-7.15,2.62-2.71,1.02-5.39,2.21-7.94,3.58-2.59,1.37-4.51,2.91-5.81,4.65l117.13,1.17Zm-117.57,4.75c.96,2.29,3.09,4.25,6.33,5.91,3.24,1.66,7.26,3.02,12.11,4.09,4.85,1.07,10.29,1.85,16.32,2.35,6.07.5,12.41.73,19.03.7,7.72-.04,14.45-.37,20.2-1,5.71-.63,10.74-1.48,15.11-2.56,4.33-1.08,8.14-2.33,11.36-3.75,3.22-1.43,6.09-2.97,8.68-4.64l-109.14-1.1Zm279.68-3.12c-.96-2.32-3.29-4.35-6.92-6.09-3.63-1.74-8.29-3.21-13.92-4.39-5.64-1.19-12.22-2.07-19.74-2.65-7.49-.58-15.76-.85-24.82-.8-8.03.04-15,.4-20.79,1.08-5.79.68-10.82,1.59-15.11,2.74-4.25,1.15-7.9,2.49-10.85,4.01-2.99,1.53-5.77,3.16-8.33,4.9l120.48,1.2Z" fill="#fcb048"/><path d="m1507.9,2601.27c-167.66,0-342.23,14.75-370.15,43.31,1.09,1.01,2.11,2.08,3.05,3.21,23.54-19.83,167.68-39.79,367.1-39.79s351,21.01,368.74,41.32c.87-1.11,1.8-2.18,2.81-3.19-23.06-29.57-200.91-44.87-371.55-44.87Z" fill="url(#s)"/></g><g><path d="m1222.03,2557.44v83.4c0,26.95,168.35,48.8,376.02,48.8s376.02-21.85,376.02-48.8v-83.4h-752.03Z" fill="url(#t)"/><path d="m1974.06,2557.44c0,26.95-168.35,48.8-376.02,48.8s-376.02-21.85-376.02-48.8,168.35-48.8,376.02-48.8,376.02,21.85,376.02,48.8Z" fill="url(#u)"/><path d="m1598.04,2609.6c-183.92,0-376.23-17.57-376.23-51.45,0-1.86.66-5.13,2.52-5.13s1.06,2.56,1.06,4.42c0,21.49,153.04,45.43,372.65,45.43s372.65-23.94,372.65-45.43c0-1.86.32-3.6,2.18-3.6s1.41,2.48,1.41,4.34c0,33.88-192.32,51.42-376.24,51.42Z" fill="url(#v)"/><path d="m1562.51,2560.16c3.69-2.55,7.62-5.07,11.82-7.56,4.16-2.48,9.59-4.73,16.15-6.73,6.61-2.01,14.87-3.64,24.79-4.9,9.92-1.26,22.32-1.93,37.13-2,14.53-.07,28.16.39,40.93,1.39,12.73.99,23.96,2.48,33.66,4.46,9.66,1.98,17.55,4.42,23.63,7.33,6.04,2.91,9.64,6.25,10.8,10.01l42.34.43c3.07.02,5.79.27,8.12.75,2.37.48,3.51,1.09,3.51,1.83l.02,3.49-54.43-.52c-1.91,4.27-6.77,8.18-14.59,11.72-7.78,3.55-17.73,6.61-29.85,9.21l-19.82-2.76c-1.77-.27-3.23-.62-4.38-1.04-1.14-.41-1.7-.87-1.7-1.36,0-.67,1.53-1.44,4.6-2.29,3.07-.86,6.53-1.93,10.38-3.2,3.85-1.27,7.63-2.76,11.36-4.49,3.69-1.72,6.16-3.79,7.45-6.19l-128.47-1.27c-3.37,2.48-7.18,4.92-11.35,7.32-4.2,2.4-9.74,4.56-16.67,6.47-6.92,1.92-15.54,3.47-25.85,4.67-10.35,1.19-23.31,1.83-38.98,1.91-11.77.06-23.24-.39-34.47-1.34-11.23-.95-21.2-2.37-29.91-4.26-8.71-1.9-15.85-4.24-21.46-7.03-5.57-2.79-8.69-6-9.34-9.62l-34.86-.36c-3.07-.02-5.79-.26-8.23-.73-2.41-.47-3.63-1.08-3.63-1.86l-.02-3.49,47.66.45c2.11-3.67,6.43-6.87,13.03-9.6,6.6-2.73,14.66-5.15,24.18-7.28l15.96,2.19c4.85.68,7.25,1.48,7.26,2.39,0,.49-.98,1.1-2.98,1.84-2.04.73-4.4,1.61-7.15,2.62-2.71,1.02-5.38,2.21-7.94,3.58-2.59,1.37-4.51,2.91-5.81,4.65l117.13,1.17Zm-117.57,4.75c.96,2.29,3.09,4.25,6.33,5.91,3.24,1.66,7.26,3.02,12.11,4.09,4.85,1.07,10.29,1.85,16.32,2.35,6.07.5,12.41.73,19.03.7,7.72-.04,14.45-.37,20.2-1,5.71-.63,10.74-1.48,15.11-2.56,4.33-1.08,8.14-2.33,11.36-3.75,3.22-1.42,6.09-2.97,8.68-4.64l-109.14-1.1Zm279.68-3.12c-.96-2.32-3.29-4.35-6.92-6.09-3.63-1.74-8.29-3.21-13.92-4.39-5.64-1.19-12.22-2.07-19.74-2.65-7.49-.58-15.76-.85-24.82-.8-8.03.04-15,.4-20.79,1.08-5.79.68-10.82,1.59-15.11,2.74-4.25,1.15-7.9,2.48-10.85,4.01-2.99,1.53-5.77,3.16-8.33,4.9l120.48,1.2Z" fill="#fcb048"/><path d="m1598.09,2513.92c-167.66,0-342.23,14.75-370.15,43.31,1.09,1.01,2.11,2.08,3.05,3.21,23.54-19.83,167.68-39.79,367.1-39.79s351,21,368.74,41.32c.87-1.12,1.8-2.18,2.81-3.19-23.06-29.57-200.91-44.87-371.55-44.87Z" fill="url(#w)"/></g><g><path d="m1276.76,2469.83v83.4c0,26.95,168.35,48.8,376.02,48.8s376.02-21.85,376.02-48.8v-83.4h-752.03Z" fill="url(#x)"/><path d="m2028.79,2469.83c0,26.95-168.35,48.8-376.02,48.8s-376.02-21.85-376.02-48.8,168.35-48.8,376.02-48.8,376.02,21.85,376.02,48.8Z" fill="url(#y)"/><path d="m1652.78,2522c-183.92,0-376.24-17.57-376.24-51.45,0-1.86.66-5.13,2.52-5.13s1.06,2.56,1.06,4.42c0,21.49,153.04,45.43,372.65,45.43s372.65-23.94,372.65-45.43c0-1.86.32-3.6,2.18-3.6s1.41,2.48,1.41,4.34c0,33.88-192.32,51.42-376.24,51.42Z" fill="url(#z)"/><path d="m1617.24,2472.55c3.69-2.55,7.62-5.07,11.82-7.56,4.16-2.48,9.59-4.73,16.15-6.73,6.61-2.01,14.87-3.64,24.79-4.9,9.92-1.26,22.32-1.93,37.13-2,14.53-.07,28.16.39,40.93,1.39,12.73.99,23.96,2.48,33.65,4.46,9.66,1.98,17.55,4.42,23.63,7.33,6.04,2.91,9.64,6.25,10.8,10.01l42.34.43c3.07.02,5.79.27,8.12.75,2.37.48,3.51,1.09,3.51,1.83l.02,3.49-54.43-.52c-1.91,4.27-6.77,8.17-14.59,11.72-7.78,3.55-17.73,6.61-29.85,9.21l-19.82-2.76c-1.77-.27-3.23-.62-4.38-1.04-1.14-.42-1.7-.87-1.7-1.36,0-.67,1.53-1.43,4.6-2.29,3.07-.86,6.53-1.93,10.38-3.2,3.85-1.27,7.63-2.76,11.36-4.49,3.69-1.72,6.16-3.79,7.45-6.19l-128.47-1.27c-3.37,2.48-7.18,4.92-11.35,7.32-4.2,2.4-9.74,4.56-16.67,6.47-6.92,1.92-15.54,3.47-25.85,4.67-10.35,1.19-23.31,1.83-38.98,1.91-11.78.06-23.24-.39-34.47-1.33-11.23-.95-21.2-2.37-29.91-4.26-8.71-1.9-15.85-4.24-21.46-7.03-5.57-2.79-8.69-6-9.34-9.62l-34.86-.36c-3.07-.02-5.79-.26-8.23-.72-2.4-.47-3.63-1.08-3.63-1.86l-.02-3.49,47.66.45c2.11-3.67,6.43-6.88,13.03-9.6,6.6-2.73,14.66-5.15,24.18-7.28l15.96,2.19c4.85.68,7.25,1.48,7.26,2.39,0,.49-.98,1.11-2.98,1.84-2.04.73-4.4,1.61-7.15,2.62-2.71,1.02-5.38,2.21-7.94,3.58-2.59,1.37-4.51,2.92-5.81,4.65l117.13,1.17Zm-117.58,4.75c.96,2.29,3.09,4.25,6.33,5.91,3.24,1.66,7.26,3.02,12.11,4.09,4.85,1.07,10.29,1.85,16.32,2.35,6.07.5,12.41.73,19.03.7,7.72-.04,14.45-.37,20.2-1,5.71-.63,10.74-1.48,15.11-2.56,4.33-1.08,8.14-2.33,11.36-3.75,3.22-1.43,6.09-2.97,8.68-4.64l-109.14-1.1Zm279.68-3.12c-.96-2.32-3.29-4.35-6.92-6.09-3.63-1.74-8.29-3.21-13.92-4.39-5.64-1.19-12.22-2.07-19.74-2.65-7.49-.58-15.76-.85-24.82-.8-8.03.04-15,.4-20.79,1.08-5.79.68-10.82,1.59-15.11,2.74-4.25,1.15-7.9,2.48-10.85,4.01-2.99,1.53-5.77,3.16-8.33,4.9l120.48,1.2Z" fill="#fcb048"/><path d="m1652.83,2426.32c-167.66,0-342.23,14.75-370.15,43.31,1.09,1.01,2.11,2.08,3.05,3.21,23.54-19.83,167.68-39.79,367.1-39.79s351,21,368.74,41.32c.87-1.11,1.8-2.18,2.81-3.19-23.06-29.57-200.91-44.87-371.55-44.87Z" fill="url(#aa)"/></g><g><path d="m1236.36,2375.32v83.4c0,26.95,168.35,48.8,376.02,48.8s376.02-21.85,376.02-48.8v-83.4h-752.03Z" fill="url(#ab)"/><path d="m1988.39,2375.32c0,26.95-168.35,48.8-376.02,48.8s-376.02-21.85-376.02-48.8,168.35-48.8,376.02-48.8,376.02,21.85,376.02,48.8Z" fill="url(#ac)"/><path d="m1612.38,2427.48c-183.92,0-376.23-17.57-376.23-51.45,0-1.86.66-5.13,2.52-5.13s1.06,2.56,1.06,4.42c0,21.49,153.04,45.43,372.65,45.43s372.65-23.94,372.65-45.43c0-1.86.32-3.6,2.18-3.6s1.41,2.48,1.41,4.34c0,33.88-192.32,51.42-376.24,51.42Z" fill="url(#ad)"/><path d="m1576.85,2378.04c3.69-2.55,7.62-5.07,11.82-7.56,4.16-2.48,9.59-4.73,16.15-6.73,6.61-2.01,14.87-3.64,24.79-4.9,9.92-1.26,22.32-1.93,37.13-2,14.53-.07,28.16.39,40.93,1.39,12.73.99,23.96,2.48,33.65,4.46,9.66,1.98,17.55,4.42,23.63,7.33,6.04,2.91,9.64,6.25,10.8,10.01l42.34.43c3.07.02,5.79.27,8.12.75,2.37.48,3.51,1.09,3.51,1.83l.02,3.49-54.43-.52c-1.91,4.27-6.77,8.18-14.59,11.72-7.78,3.55-17.73,6.61-29.85,9.21l-19.82-2.76c-1.77-.27-3.23-.62-4.38-1.04-1.14-.42-1.7-.87-1.7-1.36,0-.67,1.53-1.43,4.6-2.29,3.07-.86,6.53-1.93,10.38-3.2,3.85-1.27,7.63-2.76,11.36-4.49,3.69-1.72,6.17-3.79,7.45-6.19l-128.47-1.27c-3.37,2.48-7.18,4.92-11.35,7.32-4.2,2.4-9.74,4.56-16.67,6.47-6.92,1.92-15.54,3.47-25.85,4.67-10.35,1.19-23.31,1.83-38.98,1.91-11.78.06-23.24-.39-34.47-1.33-11.23-.95-21.2-2.37-29.91-4.26-8.71-1.9-15.85-4.24-21.46-7.03-5.57-2.79-8.69-6-9.34-9.62l-34.86-.36c-3.07-.02-5.79-.26-8.24-.72-2.4-.47-3.63-1.08-3.63-1.86l-.02-3.49,47.66.45c2.11-3.67,6.43-6.88,13.03-9.6,6.6-2.73,14.66-5.15,24.18-7.28l15.96,2.19c4.85.68,7.25,1.48,7.26,2.39,0,.49-.98,1.11-2.98,1.84-2.04.73-4.4,1.61-7.16,2.62-2.71,1.02-5.38,2.21-7.94,3.58-2.59,1.37-4.51,2.92-5.81,4.65l117.13,1.17Zm-117.57,4.75c.96,2.29,3.09,4.25,6.33,5.91,3.24,1.66,7.26,3.02,12.11,4.09,4.85,1.07,10.29,1.85,16.32,2.35,6.07.5,12.41.73,19.03.7,7.72-.04,14.45-.37,20.2-1,5.71-.63,10.74-1.48,15.11-2.56,4.33-1.08,8.14-2.33,11.36-3.75,3.22-1.43,6.09-2.97,8.68-4.64l-109.14-1.1Zm279.68-3.12c-.96-2.32-3.29-4.35-6.92-6.09-3.63-1.74-8.29-3.21-13.92-4.39-5.64-1.19-12.22-2.07-19.74-2.65-7.49-.58-15.76-.85-24.82-.8-8.03.04-15,.4-20.79,1.08-5.79.68-10.82,1.59-15.11,2.74-4.25,1.15-7.9,2.48-10.85,4.01-2.98,1.53-5.77,3.16-8.32,4.9l120.48,1.2Z" fill="#fcb048"/><path d="m1612.43,2331.8c-167.66,0-342.23,14.75-370.15,43.31,1.09,1.01,2.11,2.08,3.05,3.21,23.54-19.83,167.68-39.79,367.1-39.79s351,21,368.74,41.32c.87-1.11,1.8-2.18,2.81-3.19-23.06-29.57-200.91-44.87-371.55-44.87Z" fill="url(#ae)"/></g><g><path d="m1131.83,2287.72v83.4c0,26.95,168.35,48.8,376.02,48.8s376.02-21.85,376.02-48.8v-83.4h-752.03Z" fill="url(#af)"/><path d="m1883.86,2287.72c0,26.95-168.35,48.8-376.02,48.8s-376.02-21.85-376.02-48.8,168.35-48.8,376.02-48.8,376.02,21.85,376.02,48.8Z" fill="url(#ag)"/><path d="m1507.85,2339.88c-183.92,0-376.24-17.57-376.24-51.45,0-1.86.66-5.13,2.52-5.13s1.06,2.56,1.06,4.42c0,21.49,153.04,45.43,372.65,45.43s372.65-23.94,372.65-45.43c0-1.86.32-3.6,2.18-3.6s1.41,2.48,1.41,4.34c0,33.88-192.32,51.42-376.24,51.42Z" fill="url(#ah)"/><path d="m1472.32,2290.44c3.69-2.55,7.62-5.07,11.82-7.56,4.16-2.48,9.59-4.73,16.15-6.73,6.61-2.01,14.87-3.64,24.79-4.9,9.92-1.27,22.32-1.93,37.13-2.01,14.53-.07,28.16.39,40.93,1.39,12.73.99,23.96,2.48,33.66,4.46,9.66,1.98,17.55,4.42,23.63,7.33,6.04,2.91,9.64,6.25,10.8,10.01l42.34.43c3.07.02,5.79.27,8.12.75,2.37.48,3.51,1.09,3.51,1.83l.02,3.49-54.43-.52c-1.91,4.27-6.77,8.17-14.59,11.72-7.78,3.55-17.73,6.61-29.85,9.21l-19.82-2.76c-1.77-.27-3.23-.62-4.38-1.04-1.14-.42-1.7-.87-1.7-1.36,0-.67,1.53-1.43,4.6-2.29,3.07-.86,6.53-1.93,10.38-3.2,3.85-1.27,7.63-2.76,11.36-4.49,3.69-1.72,6.16-3.79,7.45-6.19l-128.47-1.27c-3.37,2.48-7.18,4.92-11.35,7.32-4.2,2.4-9.74,4.56-16.67,6.47-6.92,1.92-15.54,3.47-25.85,4.67-10.35,1.19-23.31,1.83-38.98,1.91-11.77.06-23.24-.39-34.47-1.34-11.23-.95-21.2-2.37-29.91-4.26-8.71-1.9-15.85-4.24-21.46-7.03-5.57-2.79-8.69-6-9.34-9.62l-34.86-.36c-3.07-.02-5.79-.26-8.23-.72-2.41-.47-3.63-1.08-3.63-1.86l-.02-3.49,47.66.45c2.11-3.67,6.43-6.88,13.03-9.6,6.6-2.73,14.66-5.15,24.19-7.28l15.96,2.19c4.85.68,7.25,1.48,7.26,2.39,0,.49-.98,1.11-2.98,1.84-2.04.73-4.4,1.61-7.15,2.62-2.71,1.02-5.39,2.21-7.94,3.58-2.59,1.37-4.51,2.92-5.81,4.65l117.13,1.17Zm-117.57,4.75c.96,2.29,3.09,4.25,6.33,5.91,3.24,1.66,7.26,3.02,12.11,4.09,4.85,1.07,10.29,1.85,16.32,2.35,6.07.5,12.41.73,19.03.7,7.72-.04,14.45-.37,20.2-1,5.71-.63,10.74-1.48,15.11-2.56,4.33-1.08,8.14-2.33,11.36-3.75,3.22-1.43,6.09-2.97,8.68-4.64l-109.14-1.1Zm279.68-3.12c-.96-2.32-3.29-4.35-6.92-6.09-3.63-1.74-8.29-3.21-13.92-4.39-5.64-1.19-12.22-2.07-19.74-2.65-7.49-.58-15.76-.85-24.82-.8-8.03.04-15,.4-20.79,1.08-5.79.68-10.82,1.59-15.11,2.74-4.25,1.15-7.9,2.48-10.85,4.01-2.99,1.53-5.77,3.16-8.33,4.9l120.48,1.2Z" fill="#fcb048"/><path d="m1507.9,2244.2c-167.66,0-342.23,14.75-370.15,43.31,1.09,1.01,2.11,2.08,3.05,3.21,23.54-19.83,167.68-39.79,367.1-39.79s351,21,368.74,41.32c.87-1.11,1.8-2.18,2.81-3.19-23.06-29.57-200.91-44.87-371.55-44.87Z" fill="url(#ai)"/></g><g><path d="m1222.03,2200.37v83.4c0,26.95,168.35,48.8,376.02,48.8s376.02-21.85,376.02-48.8v-83.4h-752.03Z" fill="url(#aj)"/><path d="m1974.06,2200.37c0,26.95-168.35,48.8-376.02,48.8s-376.02-21.85-376.02-48.8,168.35-48.8,376.02-48.8,376.02,21.85,376.02,48.8Z" fill="url(#ak)"/><path d="m1598.04,2252.53c-183.92,0-376.23-17.57-376.23-51.45,0-1.86.66-5.13,2.52-5.13s1.06,2.56,1.06,4.42c0,21.49,153.04,45.43,372.65,45.43s372.65-23.94,372.65-45.43c0-1.86.32-3.6,2.18-3.6s1.41,2.48,1.41,4.34c0,33.88-192.32,51.42-376.24,51.42Z" fill="url(#al)"/><path d="m1562.51,2203.09c3.69-2.55,7.62-5.07,11.82-7.56,4.16-2.48,9.59-4.73,16.15-6.73,6.61-2,14.87-3.64,24.79-4.9,9.92-1.27,22.32-1.93,37.13-2,14.53-.07,28.16.39,40.93,1.39,12.73.99,23.96,2.48,33.66,4.46,9.66,1.98,17.55,4.42,23.63,7.33,6.04,2.91,9.64,6.25,10.8,10.01l42.34.43c3.07.02,5.79.27,8.12.75,2.37.48,3.51,1.09,3.51,1.83l.02,3.49-54.43-.52c-1.91,4.27-6.77,8.17-14.59,11.72-7.78,3.55-17.73,6.61-29.85,9.21l-19.82-2.76c-1.77-.27-3.23-.62-4.38-1.04-1.14-.42-1.7-.87-1.7-1.36,0-.67,1.53-1.43,4.6-2.29,3.07-.86,6.53-1.93,10.38-3.2,3.85-1.26,7.63-2.76,11.36-4.49,3.69-1.72,6.16-3.79,7.45-6.19l-128.47-1.27c-3.37,2.48-7.18,4.92-11.35,7.32-4.2,2.4-9.74,4.56-16.67,6.47-6.92,1.92-15.54,3.47-25.85,4.67-10.35,1.19-23.31,1.83-38.98,1.91-11.77.06-23.24-.39-34.47-1.34-11.23-.95-21.2-2.37-29.91-4.26-8.71-1.9-15.85-4.24-21.46-7.03-5.57-2.79-8.69-6-9.34-9.62l-34.86-.36c-3.07-.02-5.79-.26-8.23-.72-2.41-.47-3.63-1.08-3.63-1.86l-.02-3.49,47.66.45c2.11-3.67,6.43-6.88,13.03-9.6,6.6-2.73,14.66-5.15,24.18-7.28l15.96,2.19c4.85.68,7.25,1.48,7.26,2.39,0,.49-.98,1.11-2.98,1.84-2.04.73-4.4,1.61-7.15,2.62-2.71,1.02-5.38,2.21-7.94,3.58-2.59,1.37-4.51,2.92-5.81,4.65l117.13,1.17Zm-117.57,4.75c.96,2.29,3.09,4.25,6.33,5.91,3.24,1.66,7.26,3.02,12.11,4.09,4.85,1.07,10.29,1.85,16.32,2.35,6.07.5,12.41.73,19.03.7,7.72-.04,14.45-.37,20.2-1,5.71-.63,10.74-1.48,15.11-2.56,4.33-1.08,8.14-2.33,11.36-3.75,3.22-1.43,6.09-2.97,8.68-4.64l-109.14-1.1Zm279.68-3.12c-.96-2.32-3.29-4.35-6.92-6.09-3.63-1.74-8.29-3.21-13.92-4.39-5.64-1.19-12.22-2.07-19.74-2.65-7.49-.58-15.76-.85-24.82-.8-8.03.04-15,.4-20.79,1.08-5.79.68-10.82,1.59-15.11,2.74-4.25,1.15-7.9,2.48-10.85,4.01-2.99,1.53-5.77,3.16-8.33,4.9l120.48,1.2Z" fill="#fcb048"/><path d="m1598.09,2156.85c-167.66,0-342.23,14.75-370.15,43.31,1.09,1.01,2.11,2.08,3.05,3.21,23.54-19.83,167.68-39.79,367.1-39.79s351,21,368.74,41.32c.87-1.11,1.8-2.18,2.81-3.19-23.06-29.57-200.91-44.87-371.55-44.87Z" fill="url(#am)"/></g><g><path d="m1175.11,2112.76v83.4c0,26.95,168.35,48.8,376.02,48.8s376.02-21.85,376.02-48.8v-83.4h-752.03Z" fill="url(#an)"/><path d="m1927.15,2112.76c0,26.95-168.35,48.8-376.02,48.8s-376.02-21.85-376.02-48.8,168.35-48.8,376.02-48.8,376.02,21.85,376.02,48.8Z" fill="url(#ao)"/><path d="m1551.13,2164.93c-183.92,0-376.24-17.57-376.24-51.45,0-1.86.66-5.13,2.52-5.13s1.06,2.56,1.06,4.42c0,21.49,153.04,45.43,372.65,45.43s372.65-23.94,372.65-45.43c0-1.86.32-3.6,2.18-3.6s1.41,2.48,1.41,4.34c0,33.88-192.32,51.42-376.24,51.42Z" fill="url(#ap)"/><path d="m1515.6,2115.48c3.69-2.55,7.61-5.07,11.82-7.56,4.16-2.48,9.59-4.73,16.15-6.73,6.61-2.01,14.87-3.64,24.79-4.9,9.92-1.26,22.32-1.93,37.13-2,14.53-.07,28.16.39,40.93,1.38,12.73.99,23.96,2.48,33.65,4.46,9.66,1.98,17.55,4.42,23.63,7.33,6.04,2.92,9.64,6.25,10.8,10.01l42.34.43c3.07.02,5.79.27,8.12.75,2.37.48,3.51,1.09,3.51,1.83l.02,3.49-54.43-.52c-1.91,4.27-6.77,8.18-14.59,11.72-7.78,3.55-17.73,6.61-29.85,9.21l-19.82-2.76c-1.77-.27-3.23-.62-4.38-1.04-1.14-.42-1.7-.87-1.7-1.36,0-.67,1.53-1.44,4.6-2.29,3.07-.86,6.53-1.93,10.38-3.2,3.85-1.27,7.63-2.76,11.36-4.49,3.69-1.72,6.17-3.79,7.45-6.19l-128.47-1.27c-3.37,2.48-7.18,4.92-11.35,7.32-4.2,2.4-9.74,4.56-16.67,6.47-6.92,1.92-15.54,3.47-25.85,4.67-10.35,1.19-23.31,1.83-38.98,1.91-11.78.06-23.24-.39-34.47-1.34-11.23-.95-21.2-2.37-29.91-4.26-8.71-1.9-15.85-4.24-21.46-7.03-5.57-2.79-8.69-6-9.34-9.62l-34.86-.36c-3.07-.02-5.79-.26-8.23-.72-2.4-.47-3.63-1.08-3.63-1.86l-.02-3.49,47.66.45c2.11-3.67,6.42-6.87,13.03-9.6,6.6-2.73,14.66-5.15,24.19-7.28l15.96,2.19c4.85.68,7.25,1.48,7.26,2.39,0,.5-.98,1.11-2.98,1.84-2.04.73-4.4,1.61-7.15,2.62-2.71,1.02-5.38,2.21-7.94,3.58-2.59,1.37-4.51,2.91-5.81,4.65l117.13,1.17Zm-117.58,4.75c.96,2.29,3.09,4.25,6.33,5.91,3.24,1.66,7.26,3.02,12.11,4.09,4.85,1.07,10.29,1.85,16.32,2.35,6.07.5,12.41.73,19.03.7,7.72-.04,14.45-.37,20.2-1,5.71-.63,10.74-1.48,15.11-2.56,4.33-1.08,8.14-2.33,11.36-3.75,3.22-1.43,6.09-2.97,8.68-4.64l-109.14-1.1Zm279.68-3.12c-.96-2.32-3.29-4.35-6.92-6.09-3.63-1.74-8.29-3.21-13.92-4.39-5.64-1.19-12.22-2.07-19.74-2.65-7.49-.58-15.76-.85-24.82-.8-8.03.04-15,.4-20.79,1.08-5.79.68-10.82,1.59-15.11,2.74-4.25,1.15-7.9,2.49-10.85,4.01-2.99,1.53-5.77,3.16-8.33,4.9l120.48,1.2Z" fill="#fcb048"/><path d="m1551.18,2069.25c-167.66,0-342.23,14.75-370.15,43.31,1.09,1.01,2.11,2.08,3.05,3.21,23.54-19.83,167.68-39.79,367.1-39.79s351,21,368.74,41.32c.87-1.11,1.8-2.18,2.81-3.19-23.06-29.57-200.91-44.87-371.55-44.87Z" fill="url(#aq)"/></g><g><path d="m2034.1,2171.56l-67.96,48.34c-21.96,15.62,57.82,165.47,178.19,334.69,120.37,169.23,235.75,293.75,257.71,278.13l67.96-48.34-435.9-612.82Z" fill="url(#ar)"/><path d="m2470,2784.38c-21.96,15.62-137.34-108.9-257.71-278.13-120.37-169.22-200.15-319.07-178.19-334.69,21.96-15.62,137.34,108.9,257.71,278.13,120.37,169.23,200.15,319.07,178.19,334.69Z" fill="url(#as)"/><path d="m2209.55,2508.2c-106.6-149.87-203.76-316.77-176.15-336.41,1.52-1.08,4.57-2.43,5.64-.92,1.08,1.52-1.47,2.35-2.99,3.43-17.51,12.45,51.69,151.04,178.98,330,127.29,178.95,235.51,289.79,253.02,277.34,1.52-1.08,3.12-1.83,4.2-.31,1.08,1.52-1.2,2.59-2.72,3.67-27.61,19.64-153.38-126.91-259.98-276.78Z" fill="url(#at)"/><path d="m2229.24,2450.59c4.22,1.53,8.55,3.27,13.01,5.25,4.44,1.95,9.41,5.07,14.85,9.26,5.46,4.22,11.58,10.01,18.36,17.36,6.78,7.35,14.51,17.07,23.15,29.09,8.48,11.8,16,23.17,22.59,34.15,6.57,10.94,11.87,20.96,15.88,30.01,3.99,9.02,6.57,16.86,7.72,23.5,1.13,6.61.49,11.48-1.9,14.6l24.19,34.75c1.76,2.52,3.14,4.87,4.09,7.05.98,2.21,1.14,3.49.54,3.92l-2.83,2.03-31.12-44.66c-4.59.92-10.59-.78-18.01-5.1-7.4-4.28-15.66-10.61-24.8-18.98l-9.24-17.75c-.81-1.6-1.37-2.99-1.69-4.17-.32-1.17-.28-1.89.13-2.18.54-.39,2.06.41,4.53,2.42,2.48,2,5.35,4.2,8.62,6.61,3.26,2.41,6.67,4.61,10.24,6.65,3.55,2.01,6.66,2.83,9.36,2.49l-73.43-105.43c-3.98-1.31-8.17-3-12.54-5-4.39-2.03-9.36-5.3-14.94-9.83-5.57-4.53-11.84-10.65-18.79-18.36-6.97-7.74-15-17.93-24.15-30.66-6.87-9.56-13.15-19.16-18.89-28.86-5.73-9.7-10.35-18.65-13.86-26.85-3.51-8.2-5.74-15.37-6.71-21.56-.95-6.15-.15-10.56,2.43-13.19l-19.91-28.61c-1.76-2.51-3.14-4.87-4.18-7.13-1.01-2.23-1.22-3.58-.59-4.04l2.83-2.03,27.25,39.1c4.22-.41,9.33,1.25,15.37,5.05,6.05,3.8,12.7,8.96,19.95,15.49l7.47,14.28c2.25,4.35,3,6.77,2.26,7.3-.4.29-1.47-.16-3.23-1.37-1.78-1.24-3.86-2.66-6.28-4.31-2.4-1.62-4.92-3.11-7.52-4.39-2.62-1.32-4.99-1.99-7.15-2.04l66.94,96.12Zm-72.02-93.06c-1.31,2.1-1.67,4.99-1.15,8.58.52,3.6,1.75,7.67,3.69,12.24,1.94,4.57,4.46,9.46,7.54,14.66,3.11,5.23,6.59,10.54,10.46,15.91,4.5,6.27,8.68,11.56,12.52,15.88,3.82,4.29,7.43,7.9,10.84,10.83,3.39,2.9,6.61,5.29,9.64,7.08,3.03,1.8,5.95,3.24,8.81,4.39l-62.36-89.57Zm164.65,226.1c1.33-2.12,1.64-5.2.95-9.17-.69-3.97-2.19-8.61-4.49-13.89-2.3-5.28-5.39-11.16-9.28-17.62-3.87-6.44-8.44-13.33-13.73-20.69-4.69-6.52-9.02-11.99-12.93-16.32-3.91-4.32-7.57-7.9-10.99-10.72-3.4-2.8-6.61-5-9.56-6.52-2.98-1.55-5.92-2.87-8.82-3.94l68.85,98.87Z" fill="#fcb048"/><path d="m2287.54,2452.79c-97.18-136.62-210.39-270.33-249.85-276.53-.19,1.48-.48,2.93-.85,4.35,29.8,7.69,129.62,113.58,245.21,276.08,118.56,166.67,186.33,298.2,180.06,324.43,1.41.06,2.82.2,4.23.44,10.73-35.93-79.89-189.73-178.8-328.78Z" fill="url(#au)"/></g></g><g><g><path d="m829.84,626.5c16.66-10.8,1.48-42.23.58-109.73-1.1-82.72,20.87-98.13,3.22-130.59-21.58-39.68-75.89-56.11-111.88-56.88-7.94-.17-9.79-4.5-76.29,12.72-119.8,31.03-149.78-2.23-203.43,30.99-51.83,32.1-29.13,67.25-79.47,104.9-81.58,61.02-167.37-4.95-225.68,46.09-55.15,48.28-56.42,171.27,1.59,238.4,65.76,76.09,184.34,53.23,263.82,38.14,16.72-3.17,101.19-20.91,189.13-85.82,48.65-35.91,82.05-74.26,103.31-102.51,4.99-5.61,12.77-12.41,23.05-13.51,12.33-1.32,22.24,6.23,27.02,9.53,25.07,17.36,68.66,28.89,85.03,18.28Z" fill="url(#av)"/><path d="m762.89,581.16c21.42-19.52,97.88,18.1,148.55,68.03,59.53,58.66,54.95,106.22,106.9,179.09,25.82,36.23,70.1,85,148.55,127.72-5.55,13.88-11.11,27.77-16.66,41.65-37.93,2.28-112.4.94-181.87-44.42-48.26-31.51-73.09-73.27-120.78-155.49-47.86-82.52-111.47-192.17-84.69-216.58Z" fill="url(#aw)"/><path d="m1245.77,1696.84l-59.68-35.86h-26.94s-9.18,34.15-8.13,35.86c12,19.66,67.88,34.63,102.74,35.86,5.79.2,13.87.24,15.96-3.96,3.54-7.11-12.26-22.01-23.95-31.9Z" fill="url(#ax)"/><path d="m1185.03,1621.85c-3.84,22.2,1.02,33.78,6.25,40.26,3.68,4.56,6.95,5.86,28.8,24.75,7.23,6.25,10.9,9.59,10.07,11.34-.96,2-7.33.92-21.1-2.39-30.01-7.22-45.09-10.97-48.77-18.19-3.33-6.54-.39-9.49-.58-27.31-.13-11.73-2.51-21.17-4.39-27.08,9.91-.46,19.82-.92,29.72-1.38Z" fill="url(#ay)"/><path d="m1228.17,1445.9s26.96,32.17,22.58,67.45c-4.39,35.27-51.61-16.3-58.19-33.72-6.59-17.43-14.28-42.26-14.28-42.26,0,0,33.11-20.6,49.89,8.53Z" fill="url(#az)"/><path d="m1217.89,1395.55s-7.32,37.48,6.64,57.27c6.95,9.85,16.32,18.21,13.57,26.23-1.85,5.38-8.86,9.24-14.8,8.63-11.37-1.17-17.68-18.61-22.13-30.91-6.57-18.17-10.23-57.04-10.23-57.04l26.96-4.18Z" fill="url(#ba)"/><path d="m1196.39,1427.15c8.29-3.02,16.59-6.04,24.88-9.06,12.94-29.55,28.73-78.08,23.45-137.07-13.56-151.7-153.87-232.09-169.46-240.7-38.23,19.18-76.95,46.24-78.35,80.35-1.76,42.82,56.57,65.46,111.41,128.07,32.92,37.58,68.09,93.59,88.07,178.41Z" fill="url(#bb)"/><path d="m1187.46,1639.2c27.4-107.03,20.4-194.37,12.5-244.69-11.95-76.05-36.25-230.74-139.52-288.42-22.55-12.6-54.79-23.88-94.09-58.9-32.82-29.24-53.67-60-66.26-81.67-138.12-40.52-265.52-24.1-321.74,49.98-6.5,8.56-22.76,27.13-25.9,54.5-7.1,61.77,53.59,136.13,121.7,151.66,86.55,19.74,136.77-69.14,213.45-39.57,21.45,8.27,39.64,28.77,76.01,69.76,46.27,52.15,72.28,100.27,82.12,119.52,29.3,57.34,51.52,99.66,54.76,154.52.75,12.78,1.21,38.6,16.17,66.44,11.49,21.37,27.06,35.63,38.65,44.43,10.72.81,21.44,1.62,32.15,2.42Z" fill="url(#bc)"/><path d="m552.44,1070.01c3.15-27.38,19.41-45.94,25.9-54.5,56.22-74.08,183.62-90.5,321.74-49.98,12.58,21.67,33.44,52.43,66.26,81.67,39.3,35.02,71.54,46.3,94.09,58.9,63.07,35.22,96.65,106.61,115.99,174.18-28.69-44.49-53.25-56.31-72.26-56.52-27.21-.3-39.36,22.96-71.85,19.78-34.72-3.39-42.66-32.1-70.8-35.4-8.42-.99-18.79.31-31.24,6.94-16.61-17.4-29-27.69-42.69-32.97-76.68-29.57-126.9,59.3-213.45,39.57-68.1-15.53-128.8-89.89-121.7-151.66Z" fill="url(#bd)" mix-blend-mode="multiply" opacity=".3"/><path d="m1115.89,1153.96c-15.63-.83-39.71-1.31-68.75,1.56-137.82,13.62-175.81,81.79-289.71,98.42-26.94,3.94-146.91,21.46-198.87-47.9-37.3-49.79-31.66-135.59,9.14-169.33,17.27-14.28,34.37-13.88,144.96-12.88,41.65.38,83.3.51,124.95,1.04,176.3,2.25,210.01-9.96,242.09,19.2,14.96,13.6,36.85,42.82,36.2,109.89Z" fill="url(#be)"/><g><path d="m743.71,588.32s-205.72-60-227.06,90.61c-20.45,144.35,84.33,210.6,36.65,356.81-5.53,16.95,391.61-60.69,391.61-60.69-53.01-66.14-65.33-120.7-66.6-158.64-1.39-41.59,10.6-60.5,0-109.66,0,0-11.83-54.86-54.5-101.97-6.13-6.76-13.43-13.81-80.11-16.47Z" fill="url(#bf)"/><path d="m612.03,1004.26l-.93-3.49c1.93-.51,194.49-51.76,308.4-58.14l.2,3.6c-113.54,6.36-305.74,57.51-307.66,58.03Z" fill="#f4f7fa" mix-blend-mode="soft-light"/></g><g><path d="m699.03,498.05c1.88,8.8,11.48,56.05-7.85,68.21-4.19,2.64-12.24,4.14-28.35,7.16-10.54,1.98-19.39,3.19-25.63,3.93.9,7.92,3.57,20.82,12.71,32.55,25.63,32.88,77.02,24.37,84.35,23.04,25.85-4.71,51.29-12.69,57.43-17.57,9.35-7.43,16.71-13.01,21.06-18.67-10-4.83-30.2-17.58-43.75-21.75-10.13-3.12-19.64-5.34-28.29-6.94-1.42-9.13-2.84-18.25-4.27-27.38-12.47-14.19-24.95-28.38-37.42-42.57Z" fill="url(#bg)"/><path d="m698.12,521.6s3.49,34.62,37.15,40.73c30.14,5.46,52.82-67.36,37.4-86.2-5.14-6.28-17.84-12.26-28.85-11.94-7.74.22-33.9,10.18-37.55,36.35-5.21-5.49-11.7-7.07-14.9-4.77-4.06,2.92-1.89,11.39-1.39,13.31,1.71,6.65,6.05,10.78,8.14,12.52Z" fill="url(#bh)"/></g></g><g><path d="m986.84,991.96l-314.87,15.32c-4.33.21-8.29,2.53-10.58,6.22l-8.71,13.98c-4.34,6.96.87,15.94,9.07,15.63l333.52-12.7-8.43-38.44Z" fill="url(#bi)"/><path d="m1314.33,816.62l-325.29,6.3c-9.62.19-18.44,5.43-23.19,13.8l-112.65,198.19,343.55-13.69c9.43-.38,18.03-5.48,22.88-13.58l104.37-174.36c4.44-7.42-1.01-16.83-9.66-16.67Z" fill="url(#bj)"/><path d="m965.84,836.73c4.76-8.37,13.57-13.61,23.2-13.8l7.13-.14c1.06,10.5,4.28,20.11,10.71,27.86,20.06,24.21,53.38,9.28,78.22,34.9,27.28,28.15,2.08,61.65,26.47,87.85,25.68,27.57,67.2,5.12,114.93,22.77l-6.87,11.48c-4.85,8.1-13.45,13.2-22.88,13.58l-343.55,13.69,112.64-198.19Z" fill="url(#bk)" mix-blend-mode="multiply" opacity=".3"/></g><path d="m697.63,981.44c4.1-10.82,8.2-21.64,12.29-32.47-45.29-12.42-107.94-30.77-172.19-53.73-10.06-3.6-22.02-8.05-25.93-18.64-10.99-29.7,58.86-60.49,86.01-125.34,25.11-59.99,11.29-143.23-17.85-153.07-60.65-20.46-275.71,247.23-198.9,360.08,43.42,63.79,177.28,73.95,316.57,23.16Z" fill="url(#bl)"/><path d="m709.93,948.98c28.44-15.11,62.47.38,64.67,1.41,6.25,2.95,15.34,8.2,24.53,17.59,1.04,1.42,13.37,18.51,8.88,23.99-3.6,4.39-17.55.75-34.31-9.68-7.03-.99-17.49-1.89-30.02-.74-23.01,2.12-33.56,9.39-41.91,3.12-6.12-4.59-8.2-14.31-6-21.53,2.36-7.76,9.36-11.61,14.17-14.16Z" fill="url(#bm)"/></g><g><g><path d="m1497.94,55.84c84.92,2.61,156.24,54.45,170.14,120.09.02.09.04.17.05.26.75,3.59,1.33,7.23,1.73,10.89.03.24.06.48.08.73.18,1.71.31,3.44.41,5.17.02.31.03.63.05.94.08,1.77.14,3.54.14,5.32,0,76.27-77.84,134.07-172.6,129.16-2.52-.13-5.03-.31-7.52-.53-.24-.02-.49-.04-.73-.06-2.36-.21-4.7-.47-7.03-.76-.36-.04-.73-.09-1.09-.13-2.26-.29-4.5-.62-6.73-.97-.42-.07-.84-.14-1.26-.21-2.19-.36-4.36-.76-6.52-1.19-.44-.09-.87-.18-1.31-.27-2.15-.44-4.28-.91-6.4-1.41-.41-.1-.82-.2-1.23-.3-2.1-.51-4.19-1.05-6.26-1.62-.37-.1-.74-.21-1.11-.32-1.86-.53-3.71-1.08-5.55-1.66-.47-.15-.93-.29-1.4-.44-1.86-.6-3.7-1.23-5.53-1.88-.4-.14-.8-.26-1.19-.41,0,0,0,0,.01-.01-62.99-22.72-107.28-73.86-107.28-131.04,0-74.29,74.72-132.22,168.12-129.35Z" fill="url(#bn)"/><g><path d="m1311.84,185.19c0,74.29,74.72,138.38,168.12,143.21,94.76,4.9,172.6-52.89,172.6-129.16s-77.84-140.49-172.6-143.4c-93.39-2.87-168.12,55.06-168.12,129.35Z" fill="url(#bo)"/><path d="m1419.32,161.82c0,21.81,25.4,73.69,43.33,107.62,7.47,14.13,27.16,15.08,34.66,1.64,18.08-32.41,43.86-82.48,43.86-104.5,0-33.98-27.48-62.47-61.21-63.62-33.56-1.15-60.64,25.2-60.64,58.86Zm28.01,1.09c0-18.11,14.59-32.26,32.63-31.6,18.09.66,32.79,15.95,32.79,34.16s-14.7,32.35-32.79,31.6c-18.04-.75-32.63-16.04-32.63-34.15Z" fill="#fff"/><g mix-blend-mode="multiply" opacity=".3"><path d="m1438.73,291.66c20.45-39.18-.22-77.63,27.44-102.42,28.23-25.29,65.09.81,105-19.23,15.49-7.78,32.77-23.18,45.63-55.81,22.41,23.99,35.76,53.52,35.76,85.03,0,76.27-77.84,134.07-172.6,129.16-21.51-1.11-42.03-5.37-60.85-12.15,9.28-8.06,15.43-16.52,19.63-24.58Z" fill="url(#bp)"/></g></g></g><g><path d="m2064.19,518.75c.07.75.13,1.49.19,2.24.05.62.09,1.24.13,1.86.05.9.1,1.8.13,2.7.02.5.05.99.06,1.49.04,1.41.07,2.83.07,4.26,0,6.2-.41,12.33-1.21,18.38-1.4,10.58-3.99,20.91-7.66,30.91-.52,1.43-1.07,2.85-1.64,4.26-2.27,5.65-4.9,11.2-7.85,16.61-6.64,12.18-14.94,23.7-24.68,34.4-2.16,2.38-4.4,4.71-6.7,7.01-2.3,2.29-4.67,4.54-7.11,6.75-9.74,8.82-20.54,16.93-32.22,24.2-1.46.91-2.93,1.8-4.42,2.69-2.98,1.76-6,3.48-9.09,5.13-10.78,5.8-22.2,10.92-34.15,15.28-3.41,1.25-6.87,2.43-10.36,3.55-3.5,1.12-7.03,2.18-10.6,3.17-3.57.99-7.18,1.92-10.83,2.77-20.06,4.71-41.18,7.38-62.94,7.68-1.86.03-3.72.03-5.58.02-.59,0-1.19-.02-1.78-.02-1.26-.01-2.53-.03-3.78-.06-.68-.02-1.35-.04-2.02-.06-1.17-.04-2.34-.07-3.51-.12-.69-.03-1.38-.07-2.07-.1-1.15-.06-2.31-.12-3.46-.19-.67-.04-1.34-.09-2-.14-1.17-.08-2.34-.17-3.51-.26-.63-.05-1.26-.11-1.88-.16-1.21-.11-2.43-.22-3.63-.34-.57-.06-1.13-.12-1.7-.18-1.29-.14-2.58-.29-3.86-.44-.47-.06-.94-.11-1.41-.17-1.42-.18-2.83-.37-4.24-.57-.32-.05-.65-.09-.97-.14-1.64-.24-3.26-.49-4.89-.75-.09-.02-.19-.03-.28-.05-10.37-1.71-20.46-3.96-30.19-6.75,0,0,.02-.02.03-.03-83.19-23.83-141.37-85.57-141.37-158.78,0-95.18,98.33-176.84,222.12-182.49,119.54-5.46,219.63,61.62,230.46,152.58.07.59.14,1.18.21,1.78.07.7.14,1.4.2,2.1Z" fill="url(#bq)"/><g><path d="m1596.34,544.79c0,95.18,96.2,170.99,217.31,169.29,123.9-1.74,226.44-83.59,226.44-182.77s-102.55-174.8-226.44-169.01c-121.11,5.66-217.31,87.31-217.31,182.49Z" fill="url(#br)"/><path d="m1749.07,445.61v168.39c0,10.81,9.15,17.56,17.06,12.59l141.02-88.52c8.8-5.52,8.8-21.16,0-26.15l-141.02-79.95c-7.91-4.48-17.06,2.82-17.06,13.63Z" fill="#fff"/><g mix-blend-mode="multiply" opacity=".3"><path d="m1760.07,670.25c26.56-52.3-.29-99.99,35.64-134.5,36.75-35.29,84.89-5.02,137.18-34.71,20.35-11.55,43.07-33.19,60.01-76.79,29.56,28.98,47.19,66.08,47.19,107.05,0,99.18-102.55,181.03-226.44,182.77-27.99.39-54.62-3.35-79.03-10.48,12.02-11.17,19.99-22.6,25.45-33.35Z" fill="url(#bs)"/></g></g></g><g><path d="m1236.32,701.73c-.55-.04-1.11-.09-1.66-.13-1.01-.08-2.01-.15-3.01-.24-.56-.05-1.11-.1-1.66-.16-1-.1-2-.19-3-.3-.53-.06-1.06-.12-1.58-.18-1.03-.12-2.06-.24-3.08-.37-.48-.06-.96-.12-1.44-.19-1.08-.14-2.16-.29-3.24-.45-.41-.06-.82-.12-1.23-.18-1.17-.18-2.34-.36-3.5-.55-.31-.05-.61-.1-.92-.15-1.31-.22-2.61-.45-3.9-.69-.16-.03-.32-.06-.48-.09-10.34-1.95-20.35-4.52-29.95-7.67,0,0,.02-.02.03-.02-69.8-22.95-118.43-76.26-118.43-136.82,0-78.78,82.29-143.25,186.43-144.02,101.24-.75,186.42,58.66,195.53,135.19.05.42.1.83.15,1.25.07.63.13,1.26.19,1.89.05.59.1,1.19.15,1.78.04.54.08,1.08.11,1.61.05.74.08,1.48.11,2.23.02.42.04.85.05,1.27.04,1.18.06,2.37.06,3.56,0,40.19-20.93,76.02-54.68,101.89-2.18,1.67-4.41,3.3-6.69,4.88-2.28,1.58-4.62,3.13-7,4.62-1.19.75-2.4,1.49-3.61,2.21-2.43,1.45-4.91,2.86-7.44,4.22-2.53,1.36-5.1,2.67-7.71,3.94-2.21,1.07-4.46,2.1-6.74,3.1-12.74,5.61-26.42,10.11-40.82,13.33-2.76.62-5.55,1.2-8.37,1.72-17,3.16-34.88,4.57-53.3,3.98-1.57-.05-3.14-.12-4.7-.2-.49-.02-.97-.06-1.46-.09-1.08-.06-2.15-.12-3.23-.2Z" fill="url(#bt)"/><g><path d="m1049.47,553.55c0,78.78,80.83,145.3,183.12,148.66,105.26,3.46,192.87-60.92,192.87-143.9s-87.6-149.58-192.87-148.79c-102.29.77-183.12,65.24-183.12,144.02Z" fill="url(#bu)"/><path d="m1266.31,656.21l-7.89-55.22-28.57-.54,7.83,55.01-28.1-.74-7.77-54.79-30.28-.57v-27.94l25.63.38-4.96-34.18-28.97-.3v-28.21l24.64.15-8.03-52.95,27.56-.03,8.09,53.16,28.46.18-7.84-53.36,27.99-.03,7.9,53.57,31.46.2v28.76l-27.03-.28,5.07,34.58,30.9.46v28.49l-25.82-.49,8.27,55.45-28.54-.75Zm-12.93-83.58l-5.03-34.45-28.49-.29,4.99,34.32,28.53.43Z" fill="#fff"/><g mix-blend-mode="multiply" opacity=".3"><path d="m1187.26,663.68c22.45-42.46-.25-83.1,30.14-110.48,31.13-28.05,71.99-1.12,116.48-24.01,17.35-8.92,36.73-26.19,51.2-62.04,25.27,25.24,40.37,56.89,40.37,91.16,0,82.97-87.6,147.36-192.86,143.9-23.69-.78-46.21-4.94-66.82-11.82,10.15-8.81,16.88-17.99,21.49-26.71Z" fill="url(#bv)"/></g></g></g></g><g><g><path d="m536.12,2752.52c-26.3-129.95-14.97-234.38-3.03-297.44,14.49-76.51,43.95-232.03,167.59-318.73,9.74-6.83,106.46-73.35,149.91-40.31,22.4,17.04,27.52,58.19,17.72,90.67-25.29,83.86-139.33,74.56-177.21,170-12.62,31.78-14.96,70.57-6.16,74.22,10.83,4.5,41.73-42.92,44.67-47.44,27.54-42.28,27.8-66.22,48.8-72.71,12.9-3.99,29.89-.25,37.5,9.94,17.31,23.19-16.89,76.04-26.45,90.81-25.01,38.64-45.9,47.42-50.98,80.32-2.19,14.17-1.8,35.11,6.61,38.37,11.36,4.42,33.05-25.18,46.97-44.17,37.41-51.05,41.4-80.72,60-82.85,17.35-1.98,36.91,21.21,41.93,35.34,13.71,38.57-41.39,120.67-357.87,313.98Z" fill="url(#bw)"/><path d="m540.08,2730.23c-3.93-120.75,15.62-216.48,33.33-279.3,22.76-80.75,65.57-232.62,185.67-298.34,8.53-4.67,71.32-39.03,88.87-20.63,11.69,12.27,1.33,45.94-15.87,68.24-29.35,38.05-63.16,22.95-111.08,60.3-43.01,33.51-58.11,78.64-61.89,90.45-14.02,43.81-6.74,81.38-4.76,95.21,7.51,52.57-7.87,138.67-114.26,284.06Z" fill="#fff" mix-blend-mode="soft-light" opacity=".28"/><path d="m582.93,2700.08c67.34-60.32,82.91-109.73,84.11-144.41.93-27.01-6.38-59.08,14.28-88.87,13.22-19.05,23.18-15.98,46.02-36.5,47.71-42.85,53.64-100.62,63.48-98.39,5.47,1.24,8.31,20.19,4.76,38.09-7.33,36.93-36.21,40.8-65.06,85.69-19.71,30.67-26.55,60.48-30.15,76.17-8.79,38.28-2.82,51.71-7.93,73-6.63,27.59-30.63,63.19-109.5,95.21Z" fill="#fff" mix-blend-mode="soft-light" opacity=".28"/></g><g><path d="m576.58,2773.51c116.74,6.69,151.45,13.69,206.46-5.06,51.69-17.62,104.72-52.31,100.06-68.23-3.34-11.42-35.8-11.27-55.18-11.18-52.02.24-94.92,16.18-125.02,31.58,25.96-17.62,51.92-35.24,77.88-52.85,18.13-6.49,48.8-20.25,75.97-49.33,17.01-18.21,56.1-67.51,41.41-91.2-15.35-24.75-88.26-19.75-130.29,15.35-20.17,16.84-20.19,29.73-47.22,59.13-24.57,26.72-49.93,43.68-67.74,53.92,16.7-20.87,39.4-53.47,57.06-97.41,26.82-66.76,47.07-172.38,12.96-191.58-22.63-12.74-67.5,13.51-89.94,44.61-18.2,25.22-16.41,46.37-28.93,127.39-5.44,35.23-10.78,63.59-14.25,81.19-34.72-76.16-44.79-140.23-46.83-187.33-2.61-60.51,7.4-107.93-15.74-120.54-20.63-11.24-57.46,10.69-76.15,31.27-75.62,83.3,24.15,278.78,34.7,298.96-27.75-21.01-65.98-53.89-103.02-101.4-39.6-50.81-56.33-88.64-76.46-85.25-20.02,3.37-33.22,46-31.72,78.99,4.19,91.97,124.3,145.98,137.12,151.55-10.1,1.63-27.24,3.34-47.43-.52-44.78-8.55-58.75-35.7-104.19-44.91-17.38-3.52-52.91-7.18-57.29,3.58-7.86,19.31,81.89,91.84,190.78,119.5,39.91,10.14,30.37,1.03,183,9.78Z" fill="url(#bx)"/><path d="m653.64,2706.98c53.15-23.63,45.93-55.76,104.07-95.55,37.24-25.48,45.89-16.19,85.79-40.55,21.95-13.4,39.89-28.76,54.45-43.95.07.11.16.2.22.31,14.69,23.69-24.4,73-41.41,91.2-27.17,29.08-57.85,42.84-75.97,49.33-25.96,17.62-51.92,35.24-77.88,52.85,30.1-15.4,73-31.33,125.02-31.58,16.9-.08,43.72-.2,52.54,7.34-15.62,9.69-29.68,14.35-41.11,16.68-26.08,5.32-42.44-.63-65,12.97-18.1,10.91-16.59,20.18-32.52,26.08-15,5.56-22.66-.31-59.66-6.38-36-5.91-54.29-8.68-68.84.46-10.99,6.91-16.83,18.3-20.05,28.32-3.73-.23-7.55-.46-11.46-.69,2.89-11.5,8.21-24.69,18.33-36.47,16.04-18.67,33.6-21.53,53.48-30.37Z" fill="#fff" mix-blend-mode="soft-light" opacity=".28"/><path d="m502.18,2747.82c-8.4-2.01-12.41,3.99-24.08,5.51-21.67,2.81-29.8-15.07-55.28-23.57-30.15-10.06-37.8,8.65-67.84-.65-23.78-7.37-20.71-19.62-51.77-37.52-33.05-19.05-47.05-11.23-71.34-26.95-7.81-5.05-16.72-12.57-25.2-24.27,10.68-5.79,38.63-2.7,53.42.3,45.44,9.22,59.4,36.36,104.19,44.91,20.2,3.86,37.33,2.15,47.43.52-12.82-5.57-132.93-59.58-137.12-151.55-1.39-30.6,9.87-69.47,27.48-77.63-2.09,21.24-2.39,39.41-2.06,53.69.75,33.23,1.34,50.13,11.86,64,18.24,24.05,40.47,11.52,70.79,36.52,27.6,22.76,17.98,40.42,46.77,63.21,24.85,19.67,39.57,12.51,62.95,28.46,14.67,10.01,32.48,28.96,43.18,68.61-4.87-.22-9.54-.42-13.98-.6-4.23-11.25-10.36-20.81-19.41-22.98Z" fill="#fff" mix-blend-mode="soft-light" opacity=".28"/><path d="m528.4,2622.48c-14.55-39.62-39.8-35.55-50.34-70.44-10.47-34.69,12.44-45.47,6.6-95.7-4.38-37.63-18.58-43.17-19.53-68.89-.7-18.96,5.99-44.79,36.89-76.82,9.37-2.46,18.22-2.47,25.21,1.34,23.14,12.61,13.13,60.03,15.74,120.54,2.03,47.09,12.11,111.17,46.83,187.33,3.47-17.6,8.8-45.97,14.25-81.19,12.52-81.03,10.74-102.18,28.93-127.39,22.44-31.1,67.31-57.34,89.94-44.61,1.29.73,2.5,1.59,3.64,2.56-11.29,7.7-21.7,17.15-30.45,28.82-29.85,39.77-12.87,68.27-39.92,146.72-26.02,75.45-52.42,80.11-73.37,145.31-6.69,20.82-12.99,48.38-14.29,83-7.65-.42-14.85-.8-21.67-1.13-7.84-25.68-11.53-48.66-13.11-68.15-3.47-42.92,4.47-54.53-5.35-81.29Z" fill="#fff" mix-blend-mode="soft-light" opacity=".28"/></g></g></g></g></g></svg>